/* XPM */
static char *result[] = {
/* columns rows colors chars-per-pixel */
"32 32 36 1 ",
"  c #A4C263",
". c #C0D470",
"X c #987B31",
"o c #534721",
"O c #CCAD47",
"+ c #E6D86C",
"@ c #FFD600",
"# c #F7F2A6",
"$ c #FFFC00",
"% c #E3B700",
"& c #C79D00",
"* c #C70000",
"= c #7A6843",
"- c #EEDAB3",
"; c #3B6D5D",
": c #FDF0C5",
"> c #EFEFEF",
", c #343F2F",
"< c #F3EFEF",
"1 c #CA9E73",
"2 c white",
"3 c #A0A69E",
"4 c #136F39",
"5 c #DDBD9C",
"6 c #12A855",
"7 c #5C2E06",
"8 c #853E10",
"9 c #D14F35",
"0 c #FFACD4",
"q c #FF7774",
"w c #FF5DB3",
"e c #663450",
"r c #D6DAD9",
"t c #747676",
"y c #B4B8B7",
"u c black",
/* pixels */
" ....    ......        ...      ",
"............................ ...",
"................................",
".. ....... .. ............... ..",
"....................... ........",
"............XXXXXXXX..o.........",
"..........XXOO++++OoXo@o........",
".........XO++#+++++$o@%&o.......",
"..... ..XO++#+++++$@%%*&o ......",
".......XO++##+++++@%##+OX.......",
".......X++++#####@###+++X.......",
"......XO+++++#######++++OX......",
"......XO++++++++++++++++OX......",
"......X+++++++++++++++++OX......",
"......X+++++++O+++O+O+O+OX......",
"......X++++++==++-;;;--=X.......",
" .....X+++++=:-++;>,<:-=........",
"......X+++++=:1+#;2,3:-=........",
".....XO+++++=-1+#:244:5=........",
".....X++++++O=5++::66:1=........",
".....X++++++O15++::::5=.........",
".....X++++++O115++-51=..........",
"... .XO+O+++O===++===...........",
".....XO+X++OX789++05=...........",
".....XOOXO+O79qqO+0we...........",
"......XOXXOX79qqXOq97...........",
".......X..Xw7892rX99e...........",
".........788wtr::-=0we.... .. ..",
"........78899q=5-5=yryt.........",
"........789qqq9===9r22yt........",
"........799qqqqq99qyrytt........",
"  .......789qqqqqqrryyyt...  .  "
};
