/* XPM */
static char *result[] = {
/* columns rows colors chars-per-pixel */
"32 32 37 1 ",
"  c #A4C263",
". c #C0D470",
"X c #987B31",
"o c #534721",
"O c #CCAD47",
"+ c #E6D86C",
"@ c #FFD600",
"# c #F7F2A6",
"$ c #FFFC00",
"% c #E3B700",
"& c #C79D00",
"* c #C70000",
"= c #7A6843",
"- c #EEDAB3",
"; c #3B6D5D",
": c #FDF0C5",
"> c #EFEFEF",
", c #343F2F",
"< c #F3EFEF",
"1 c #CA9E73",
"2 c white",
"3 c #A0A69E",
"4 c #136F39",
"5 c #DDBD9C",
"6 c #12A855",
"7 c #5C2E06",
"8 c #853E10",
"9 c #FFD0DF",
"0 c #FFACD4",
"q c #D14F35",
"w c #FF7774",
"e c #FF5DB3",
"r c #663450",
"t c #747676",
"y c #D6DAD9",
"u c #B4B8B7",
"i c black",
/* pixels */
" ....    ......        ...      ",
"............................ ...",
"................................",
".. ....... .. ............... ..",
"............XXXXXXXX..o ........",
"..........XXOO++++OoXo@o........",
".........XO++#+++++$o@%&o.......",
"........XO++#+++++$@%%*&o.......",
"..... .XO++##+++++@%##+OX ......",
".......X++++#####@###+++X.......",
"......XO+++++#######++++OX......",
"......XO++++++++++++++++OX......",
"......X++++++++++O++++++OX......",
"......X+++++++O++O++O+O+OX......",
"......X++++++==++-;;;--=X.......",
"......X+++++=:-++;>,<:-=........",
" .....X+++++=:1+#;2,3:-=........",
"......X+++++=-1+#:244:5=........",
"......XO++++O=5++::66:1=........",
"......XO+O++O15++::::5=.........",
"......XO+O++O11++--51=..........",
"......XOOO+OO==++====...........",
"... ..XOOO+O788++905=...........",
"......XOOXO7qww+Ow0er...........",
"......XOOXO7qwwOwwwq7...........",
".......XOXXty2ytwwqqr...........",
"........X.7=-::=9990er..........",
".........78=5::=ww0yyut... .. ..",
"........78qq===qwww222ut........",
"........78qqqqwwwwwyyuut........",
".........78qqwwwwww22yt.........",
"  ....... 77778888uutt.....  .  "
};
