/* XPM */
static char *result[] = {
/* columns rows colors chars-per-pixel */
"32 32 15 1 ",
"  c #A4C263",
". c #C0D470",
"X c #BCDAD3",
"o c #110A03",
"O c #7EAEA3",
"+ c #FFF23B",
"@ c #456975",
"# c #FBC531",
"$ c #F07508",
"% c #3E2020",
"& c #853E33",
"* c #D5DFDC",
"= c #A9B1AE",
"- c #767D7A",
"; c black",
/* pixels */
" ....    ......        ...      ",
"............................ ...",
"................................",
".. ....... .. ............... ..",
"....................... ........",
"................................",
"................................",
".................. .............",
"..... ................... ......",
".....XX.oooooooo.XX.............",
"....XXOo++++++++oXO@............",
"....XOOo++++##++oOO@............",
".....@Oo+#o+##o+oO@.............",
"......@o+#o##+o+o@..............",
".......o$#$####$o...............",
".......o%&&&%%&%o...............",
" ......o$$##$$$$o...............",
".......o%%%%%%%%o...............",
"........oo*==-oo................",
"..........o--o..................",
"...........oo...................",
"................................",
"... ............. ..............",
"................................",
"........ .......................",
"................................",
"............. ..................",
".......................... .. ..",
"................................",
"................................",
"................................",
"  ...X...      ...X........  .  "
};
