/* XPM */
static char *result[] = {
/* columns rows colors chars-per-pixel */
"32 32 15 1 ",
"  c #A4C263",
". c #C0D470",
"X c #110A03",
"o c #FFF23B",
"O c #FBC531",
"+ c #BCDAD3",
"@ c #7EAEA3",
"# c #456975",
"$ c #F07508",
"% c #3E2020",
"& c #853E33",
"* c #D5DFDC",
"= c #767D7A",
"- c #A9B1AE",
"; c black",
/* pixels */
" ....    ......        ...      ",
"............................ ...",
"................................",
".. ....... .. ............... ..",
"....................... ........",
"................................",
"................................",
".................. .............",
"..... ................... ......",
".........XXXXXXXX...............",
"........XooooooooX..............",
"........XooooOOooX..............",
"....++++XoXooOXOoX++++..........",
"....+@@#XoXOOOXOoX+@@#..........",
"....####X$O$OOOO$X####..........",
"........X%&&&%%&%X..............",
" .......X$$OO$$$$X..............",
"........X%%%%%%%%X..............",
".........XX**==XX...............",
"..........X*--=X................",
"...........X==X.................",
"............XX..................",
"... ............. ..............",
"................................",
"........ .......................",
"................................",
"............. ..................",
".......................... .. ..",
"................................",
"................................",
"................................",
"  .......      ............  .  "
};
