/* XPM */
static char *result[] = {
/* columns rows colors chars-per-pixel */
"32 32 20 1 ",
"  c #A4C263",
". c #C0D470",
"X c #5F7A79",
"o c #97BB8E",
"O c #AED499",
"+ c #C2E09A",
"@ c #AF6776",
"# c #A35B70",
"$ c #E8B5AC",
"% c #D99A9A",
"& c #BD757E",
"* c #8A4A70",
"= c #6E967C",
"- c #90625D",
"; c #AA7959",
": c #B68962",
"> c #B3C373",
", c #C49A6C",
"< c #9AB367",
"1 c white",
/* pixels */
"    ....    ......        ...   ",
"............XXXXXXXXX.......... ",
"..........XXoOOOOOOooX..........",
" .... ..XXoOOO+++O++OoXX........",
".......XoOOOOO+++O++OOooX. .....",
"......XoO+++O+++OOOOOOOOoX......",
".....XooO++++++OOO+++OOOooX.....",
".....XOOOOO++OOOOO+@@+@#ooX.....",
"....XoOOOOOOOOOOOO@$%@&&*OoX ...",
"....XoOOOOOOOOOOOO#%&&&&*OoX....",
"....Xoo@@O@#oOOOOOO#&@&*oooX....",
"....Xo@$%@&&*OOOOOOo***OooX.....",
"....Xo#%&&&&*oooOOoOOOooooX.....",
".....Xo#&@&*oooooooooooooooX....",
".....Xoo***ooooooooooooooooX....",
"....X=oooooooooooooooooooo=X....",
"... X===o==oo===ooooo======X....",
"....X===o==oo===@@o@#======X....",
"....X========oo@$%@&&*oo==X.....",
".....X==ooo====#%&&&&*====X.....",
".....X==========#&@&*=====X.....",
"......X==========***=====X......",
"...... XX=============XXX.......",
".........XXXXXXXXXXXXX..........",
"........... -;;;;;;-............",
"............-:;;;;:-............",
"...........>-::::::->...........",
" ........>>>-:,:,,,->>>...... ..",
"........>>>-,,,,,,,,->>>........",
"........>>>>,,,,,,,,>>>>........",
".........>>>>>>,,>>>>>>.........",
".    ......><<<<<<>>>.........  "
};
