/* XPM */
static char *result[] = {
/* columns rows colors chars-per-pixel */
"32 32 7 1 ",
"  c #A4C263",
". c #78A158",
"X c #B68962",
"o c #C0D470",
"O c #C49A6C",
"+ c #AA7959",
"@ c white",
/* pixels */
"                                ",
"................................",
"XoXXXoXXXXXoXXXXXoXXXoXXXXXXXXXX",
"XXoXXXXOOOoXXXXXXXXXXXoXXXXXXXXo",
"OOXXXXXOOOOOOXXXXXOOOXOOOXXOOOXX",
"OOOOOOXOOOOOOXOOOOOOOXOOOOOOOOOX",
"OOOOOOXOOOOOOXOOOOOOOXOOOOOOOOOX",
"OOOOOOXOOOOOOXOOOOOOOXOOOOOOOOOX",
"OOOOOOXOOOOOOXOOOOOOOXOOOOOOOOOX",
"XXXOOOXXXXXOOXXXXXXOOXXXXXXXOOOX",
"++XXXX+++++XXX+++XXXXX+++++XXXX+",
"..++++.....+++...+++++.....++++.",
"......     ...   .......  ......",
"                                ",
"       o                        ",
"  ooooooooooooo      ooooooo    ",
"oooooooooooooooooooooooooooooooo",
"oooooooooooooooooooooooooooooooo",
"oooooooooooooooooooooooooooooooo",
"ooo oooooooooooooooooooooooooooo",
"oooooooooooooooo ooooooooooooooo",
"oooooooooooooooooooooooooooooooo",
"ooooooooooooooooooooo oooooooooo",
" ooooooooooooooooooooooooooooooo",
"oooooooooooo ooooooooooooo ooooo",
"oooooooooooooooooooooooooooooooo",
"oooooooooooooooooooooooooooooooo",
"oooooooooooooooooooooooooooooooo",
"oooooooooooooooooooooooooooooooo",
"oooooooooooooooooooooooooooooooo",
"o ooooooooooooooooooooooooooo oo",
"oooooooooooooooooooooooooooooooo"
};
