/* XPM */
static char *result[] = {
/* columns rows colors chars-per-pixel */
"32 32 7 1 ",
"  c #C0D470",
". c #A4C263",
"X c #78A158",
"o c #AA7959",
"O c #B68962",
"+ c #C49A6C",
"@ c white",
/* pixels */
"                 ..XoO++++++O X.",
"       .         ..XoO++++++O...",
"                 ..XoOOOOOOOOXXX",
"                 ...XoO++++OOO O",
"                ....XOO+++ OOOOO",
"           .    ....XOO++++++OOO",
"                ...Xo+O++++++O++",
"                ...Xo+O++++++O++",
"                ...Xo+O++++++O++",
"                ...Xo+O++++++O++",
"         .       ..Xo+OOOOO++OOO",
"                 ..XXOoooooOOOoo",
"                 ..XXoXXXXXoooXX",
"                 ...XX.....XXX..",
"                 ...X...........",
"       .         ..XX.. ........",
"       .                       .",
"                                ",
"   .                            ",
"                                ",
"                                ",
"                                ",
"                                ",
"      .                         ",
"                     .          ",
"                                ",
"                                ",
"                              . ",
"  .                      .    . ",
"                              . ",
"                              . ",
"  .                           . "
};
