/* XPM */
static char *result[] = {
/* columns rows colors chars-per-pixel */
"32 32 7 1 ",
"  c #A4C263",
". c #78A158",
"X c #B68962",
"o c #C49A6C",
"O c #AA7959",
"+ c #C0D470",
"@ c white",
/* pixels */
"  .XXXooooXO.    +++++++++++++++",
". .+XXooooXO.   +++++++++++     ",
"+ .XXXXXXXXXO.  ++++++++++++++++",
"XXXXXooooooXO.  ++++++++++++++++",
"ooXXXooooooXO.  ++++++++++++++++",
"ooXo+oooooXO.   ++++++++++++++++",
"ooXoooooooXO.   ++++++++++++ +++",
"ooXoooooooXO.   ++++++++++++++++",
"ooXoooooooXO.  +++++++++++++++++",
"ooXXXXXXXXXO.   ++++++++++++++++",
"XXXOXXoooooXO.  ++++++++ +++++++",
"OOO...OOOOO.....++++++++++++++++",
"...   .......  .++++++++++++++++",
"                ++++++++++++++++",
"                ++++++++++++++++",
"++++      ++++++++++++++++++++++",
"++++++++++++++++++++++++++++++++",
"++++++++++++++++++++++++++++++++",
"++++++++++++++++++++++++++++++++",
"++++++++++++++++++++++++++++++++",
"+++++ ++++++++++++++++++++++++++",
"++++++++++++++++++++++++++++++++",
"++++++++++ +++++++++++++++++++++",
"++++++++++++++++++++++++++++++++",
"+ +++++++++++++  +++++++++++++++",
"+++++++++++++++++++++++ ++++++++",
"++++++++++++++++++++++++++++++++",
"++++++++++++++++++++++++++++++++",
"++++++++++++++++++ +++++++++++++",
"++++++++++++++++++++++++++++ ++ ",
"++++++++++++++++++++++++++++++++",
"++++++++++++++++++++++++++++++++"
};
