/* XPM */
static char *result[] = {
/* columns rows colors chars-per-pixel */
"32 32 7 1 ",
"  c #C0D470",
". c #A4C263",
"X c #78A158",
"o c #AA7959",
"O c #B68962",
"+ c #C49A6C",
"@ c white",
/* pixels */
"        .       ...XXoO+++++OOX.",
" .              ...XXoO+++++O X.",
"                 ..XoOO++++O OX.",
"            .    ..XoO+++++OOOX.",
"                 ..XoO+++++OOOX.",
"                 ..XoO+++++OO X.",
"                 ...XoOOOOOOOOX.",
"                  ..XoO++++++OX.",
"                 ...XoO++++++OX.",
"                 ...XoO++++++OX.",
"                 ...XoO+++++ OX.",
"                 ..XoO++++++O X.",
"       .         ..XoO++++++OOX.",
"                 ..XoOOOOOOOOOX.",
"                 ...XoO++++OOOX.",
"                ....XoO++++OOOX.",
"           .    ....XoO++++OOOX.",
"                ...XoOO++++OO X.",
"                ...XoOO+++++OOX.",
"                ...XoO++++++OOX.",
"                ...XoO++++++OOX.",
"         .       ..XoOOOOOOOO X.",
"                 ..XXoO+++++ OX.",
"                 ..XXoO+++++OOX.",
"                 ...XoO+++++OOX.",
"                 ...XoO++++OOOX.",
"       .         ..XXoO++++OOOX.",
"                 ..XoOO+++++OOX.",
"                ...XoO++++++OOX.",
" .              ...XoO++++++OOX.",
"                ...XoO+++++OOOX.",
"                ...XXoOOOOOO OX."
};
