/* XPM */
static char *result[] = {
/* columns rows colors chars-per-pixel */
"32 32 7 1 ",
"  c #A4C263",
". c #78A158",
"X c #B68962",
"o c #C0D470",
"O c #AA7959",
"+ c #C49A6C",
"@ c white",
/* pixels */
" .XoXXXXXXO..   oooooooooooooooo",
" .XXX+++++XO.   oooooooooooooooo",
" .XX++++++XO.   oooooooooooooo o",
" .XX++++++XO.   oooooooooooooooo",
" .XX+++++XXO.  ooooooooooooooooo",
" .XXX++++XO..  ooooooooo ooooooo",
" .XXX++++XO.   ooooooooooooooooo",
" .XX+++++XO.   ooooooooooooooooo",
" .XX+++++XO..  ooooooooooooooooo",
" .Xo+++++XO..  ooooooooooooooooo",
" .oXXXXXXXXO.  ooooooo ooooooooo",
" .XX++++++XO.   oooooooooooooooo",
" .XX++++++XO.   oooooooooooooooo",
" .XX+++++XXO.   oooooooooooooooo",
" .oXX++++XXO.   oooooooooooooooo",
" .XXX++++XO.    oooo ooooooooooo",
" .XXX++++XO.    oooooooooooooooo",
" .XXX++++XO.   ooooooooooooooooo",
" .XXXXXXXXXO.  ooooooooooooooooo",
" .XX++++++XO.  ooooooooo ooooooo",
" .oX++++++XO.  ooooooooooooooooo",
" .Xo+++++XO.   ooooooooooooooooo",
" .X++++++XO.   ooooooooooooooooo",
" .X++++++XO.   ooooooooooooooooo",
" .X++++++XO.  oooooooooooooooooo",
" .XXXXXXXXO.   ooooooooooooooooo",
" .oXX+++++XO.  ooooooooooooooooo",
" .XXX+++++XO.  ooooooooooooooooo",
" .XXX+++++XO.  oooo oooooooooooo",
" .XoX++++XXO.  ooooooooooooooooo",
" .oX+++++XO..   oooooooooooooo o",
" .XX+++++XO..   ooooooo oooooooo"
};
