/* XPM */
static char *result[] = {
/* columns rows colors chars-per-pixel */
"32 32 7 1 ",
"  c #C0D470",
". c #A4C263",
"X c #78A158",
"o c #AA7959",
"O c #B68962",
"+ c #C49A6C",
"@ c white",
/* pixels */
"                                ",
"  .                           . ",
"                                ",
"                                ",
"                                ",
"                                ",
"                                ",
"     .             .            ",
"                               .",
"          .                     ",
"                                ",
"               .                ",
"                            .   ",
"                                ",
"                                ",
"                                ",
"....       ......             ..",
"........................ .......",
"................................",
"XXXXXX..XXXXXXX...XXX.....XXXXXX",
"XooooXXXXXoooooXXXoooXXXXXooooXX",
"oOOOOoooooOOOOOoooOOOoooooOOOOoo",
"O+++OOOOOOO++OOOOOO++OOOOO+++OOO",
"O+++++++++O+++++++O++++++O++++++",
"O+++++++++O+++++++O++++++O++++++",
"O+++++++++O+++++++O++++++O++++++",
"O+++++++++O+++++++O++++++O++++++",
"OO+++OO+++O+++OOOOO++++++OOOOO++",
" OOOOOOOO OOOOOOOOOOO +++OOOO OO",
"OOOOOOOOOO OOO OOOOO OOOOO OOO O",
"XXXXXXXXXXXXXXXXXXXXXXXXXXXXXXXX",
"................................"
};
