/* XPM */
static char *result[] = {
/* columns rows colors chars-per-pixel */
"32 32 7 1 ",
"  c #C0D470",
". c #A4C263",
"X c #78A158",
"o c #AA7959",
"O c #B68962",
"+ c #C49A6C",
"@ c white",
/* pixels */
" .                           .  ",
" .                              ",
" .                              ",
" .    .                      .  ",
" .                              ",
"                                ",
"                                ",
"          .                     ",
"                         .      ",
"                                ",
"                                ",
"                                ",
"                                ",
"                            .   ",
"                                ",
".                       .       ",
"........ ..XX..         .       ",
"...........X...                 ",
"..XXX.....XX...                 ",
"XXoooXXXXXoXX..                 ",
"ooOOOoooooOXX..                 ",
"OOO++OOOOO+oX..       .         ",
"++O++++++O+oX...                ",
"++O++++++O+oX...                ",
"++O++++++O+oX...                ",
"++O++++++O+oX...                ",
"OOO++++++OOX....    .           ",
"OOOOO +++OOX....                ",
"O OOO++++OoX...                 ",
"XXXOOOOOOOOoX..                 ",
"...O++++++OoX..         .       ",
".X O++++++OoX..                 "
};
