/* XPM */
static char *result[] = {
/* columns rows colors chars-per-pixel */
"32 32 22 1 ",
"  c #A4C263",
". c #C0D470",
"X c #534721",
"o c #987B31",
"O c #CCAD47",
"+ c #E6D86C",
"@ c #F7F2A6",
"# c #5C2E06",
"$ c #853E10",
"% c #D14F35",
"& c #747676",
"* c #D6DAD9",
"= c white",
"- c #7A6843",
"; c #EEDAB3",
": c #FDF0C5",
"> c #DDBD9C",
", c #FF5DB3",
"< c #FFACD4",
"1 c #FFD0DF",
"2 c #FF7774",
"3 c black",
/* pixels */
" ....    ......        ...      ",
"............................ ...",
"................................",
".. ....... .. ............... ..",
"................X...... ........",
"............ooooooooo...........",
"..........ooOO+++++OOoo.........",
".........oO++@+++++@++Oo........",
"..... ..oO++@+++++++@++Oo ......",
".......oO++@@+++++++@@++Oo......",
".......oO++@@+++++++@@++Oo......",
"......oO+++@@@+++++@@@+++Oo.....",
"......oO++++@@@@@@@@@++++Oo.....",
"......oO+++++@@@@@@@+++++Oo.....",
"......oO+++++++++++++++++Oo.....",
"......oO+++++++++++++++++Oo.....",
" .....oO+++++++++++++++++Oo.....",
"......oO++++++++++++++++++o.....",
"......oO++++++++++++++++@+o.....",
".......oO+@++++++++++++@++Oo....",
".......oO++@+@@+++++@@++++Oo....",
".......oO#++O+++@@@+++O++OOo....",
"... ...o#$O+O++O+@+O++O++OOo....",
".......o#%O+O++O+++O++O+OoOo....",
".......&*=OOOO+OO+OO+OO+Ooo.....",
"......-;:*oOOoOOOOOOOoOOo.......",
"......->::-oOoOOoOoOOoOo........",
".......---$,o<oo1o<oo,o#.. .. ..",
"........#$$%%2222222%%$$#.......",
"........#$$%222222222%%$#.......",
".........##$%222222222%$#.......",
"  .......  ##%%222222%$#...  .  "
};
