/* XPM */
static char *result[] = {
/* columns rows colors chars-per-pixel */
"32 32 16 1 ",
"  c #A4C263",
". c #C0D470",
"X c #534721",
"o c #987B31",
"O c #CCAD47",
"+ c #E6D86C",
"@ c #F7F2A6",
"# c #7A6843",
"$ c #FDF0C5",
"% c #EEDAB3",
"& c #853E10",
"* c #D14F35",
"= c #FFD0DF",
"- c #5C2E06",
"; c #FF7774",
": c black",
/* pixels */
" ....    ......        ...      ",
"............................ ...",
"................................",
".. ....... .. ..X............ ..",
"............ooooooooo.. ........",
"..........ooOO+++++OOoo.........",
".........oO++@+++++@++Oo........",
"........oO++@+++++++@++Oo.......",
"..... .oO++@@+++++++@@++Oo......",
".......oO++@@+++++++@@++Oo......",
"......oO+++@@@+++++@@@+++Oo.....",
"......oO++++@@@@@@@@@++++Oo.....",
"......oO+++++@@@@@@@+++++Oo.....",
"......oO+++++++++++++++++Oo.....",
"......oO+++++++++++++++++Oo.....",
"......oO+++++++++++++++++Oo.....",
" .....oO+++++++++++++++++Oo.....",
"......oO+@+++++++++++++@+Oo.....",
"......oOO+@+++++++++++@+OOo.....",
"......oOO+++@@+++++@@+++OOo.....",
"......oOO++O+++@@@+++O++OOo.....",
"......oOOO+O++O+@+O++O+OOOo.....",
"... ..oOoO+O++O+++O++O+OoOo.....",
".......ooOOOO+OO+OO+OOOOoo......",
".......#$oOOoOOOOOOOoOOo$#......",
".......#$%oOoOOoOoOOoOo%$#......",
"........##&o*oo=o=oo*o&##.......",
"........-&&**;;;;;;;**&&-. .. ..",
"........-&**;;;;;;;;;**&-.......",
"........-&*;;;;;;;;;;;*&-.......",
".........--*;;;;;;;;;*--........",
"  .......  -----------.....  .  "
};
