/* XPM */
static char *result[] = {
/* columns rows colors chars-per-pixel */
"32 32 11 1 ",
"  c #A4C263",
". c #C0D470",
"X c #211F30",
"o c #A4CC42",
"O c #FBCDD6",
"+ c #F89CC0",
"@ c #72A11D",
"# c #EA71BD",
"$ c #BA3FAF",
"% c #28860F",
"& c white",
/* pixels */
"    ....    ......        ...   ",
"............................... ",
"................................",
" .... ....... .. ...............",
".......................... .....",
"................................",
"................................",
"..................... ..........",
"........ ................... ...",
"................................",
"......XXXXXXXXXXXXXXXXXXXX......",
"......XoO++++++++++++++OoX......",
"......X@+#X##########X#+@X......",
"......X@+###+######+###+@X......",
"......X@+$##X#+##+#X##$+@X......",
"......X%@+####X##X####+@%X......",
"... ...X%+$$$######$$$+%X.......",
".......X%%+++$$$$$$+++%%X.......",
"........X%%%%++++++%%%%X........",
".........XX%%%%%%%%%%XX.........",
"...........XX%%%%%%XX...........",
".............XXXXXX.............",
"...... ............. ...........",
"................................",
"........... ....................",
"................................",
"................ ...............",
" ............................ ..",
"................................",
"................................",
"................................",
".    .......      ............  "
};
