/* XPM */
static char *result[] = {
/* columns rows colors chars-per-pixel */
"32 32 9 1 ",
"  c #A4C263",
". c #C0D470",
"X c black",
"o c #F5B97D",
"O c #853E33",
"+ c #A9B1AE",
"@ c #767D7A",
"# c #494D4B",
"$ c white",
/* pixels */
"    ....    ......        ...   ",
"............................... ",
"................................",
" .... ....... .. ...............",
".......................... .....",
"................................",
".XX..........................XX.",
"XooX................. ......XooX",
"XoOX.... ...................XoOX",
"XoOX........................XoOX",
"XXXX........................XXXX",
"X++X........................X++X",
"X+@X........................X+@X",
"XXXX........................XXXX",
"XoOX........................XoOX",
"XoOX........................XoOX",
"XoOX........................XoOX",
"XoOXX......................XXoOX",
"XoOX+X....................X+XoOX",
"XoOX@X....................X@XoOX",
"XoOXX......................XXoOX",
"XoOX........................XoOX",
"XoOX.. ............. .......XoOX",
"XoOX........................XoOX",
"XXXX....... ................XXXX",
"X@#X........................X@#X",
"X##X............ ...........X##X",
"XXXX........................XXXX",
"XoOX........................XoOX",
"XoOX........................XoOX",
"XOOX........................XOOX",
".XX  .......      ...........XX "
};
