/* XPM */
static char *result[] = {
/* columns rows colors chars-per-pixel */
"32 32 11 1 ",
"  c #A4C263",
". c #C0D470",
"X c black",
"o c #F3D1B0",
"O c #C8895C",
"+ c #8F4B41",
"@ c #C1C6C4",
"# c #868C8A",
"$ c #535755",
"% c #F5F7F7",
"& c white",
/* pixels */
"    ....    ......        ...   ",
"............................... ",
"................................",
" .... ....... .. ...............",
".......................... .....",
".XXXXXXXXXXXXXX..XXXXXXXXXXXXXX.",
"XooooXooooXooooXXooooXooooXooooX",
"XoOO+XoOO+XoOO+XXoOO+XoOO+XoOO+X",
"XoOO+XoOO+XoOO+XXoOO+XoOO+XoOO+X",
"XXXXXXXXXXXXXXXXXXXXXXXXXXXXXXXX",
"X@@@@@@@@@@@@##XX@@@@@@@@@@@@##X",
"X@############$XX@############$X",
"XXXXXXXXXXXXXXXXXXXXXXXXXXXXXXXX",
"Xo+++Xo+++Xo+++XXo+++Xo+++Xo+++X",
"XoOO+XoOO+XoOO+XXoOO+XoOO+XoOO+X",
"XoOO+XoOO+XoOO+XXoOO+XoOO+XoOO+X",
"XoOO+XoOO+XoXX+XXoXX+XoOO+XoOO+X",
"XoOO+XoOO+XX@@XXXX@@XXoOO+XoOO+X",
"XoOO+XoOO+XX@#XXXX@#XXoOO+XoOO+X",
"XoOO+XoOO+X+XX+XX+XX+XoOO+XoOO+X",
"XoOO+XoOO+Xo+++XXo+++XoOO+XoOO+X",
"XoOO+XoOO+XoOO+XXoOO+XoOO+XoOO+X",
"XoOO+XoOO+XoOO+XXoOO+XoOO+XoOO+X",
"XXXXXXXXXXXXXXXXXXXXXXXXXXXXXXXX",
"X@############$XX@############$X",
"X##$$$$$$$$$$$$XX##$$$$$$$$$$$$X",
"XXXXXXXXXXXXXXXXXXXXXXXXXXXXXXXX",
"Xo+++Xo+++Xo+++XXo+++Xo+++Xo+++X",
"XoOO+XoOO+XoOO+XXoOO+XoOO+XoOO+X",
"X++++X++++X++++XX++++X++++X++++X",
".XXXXXXXXXXXXXX..XXXXXXXXXXXXXX.",
".X%@##X..X%@##X   .X@X........  "
};
