/* XPM */
static char *result[] = {
/* columns rows colors chars-per-pixel */
"32 32 36 1 ",
"  c #A4C263",
". c #C0D470",
"X c #987B31",
"o c #534721",
"O c #CCAD47",
"+ c #E6D86C",
"@ c #FFFC00",
"# c #FFD600",
"$ c #F7F2A6",
"% c #E3B700",
"& c #FF2627",
"* c #C79D00",
"= c #EEDAB3",
"- c #3B6D5D",
"; c #FDF0C5",
": c #DDBD9C",
"> c #EFEFEF",
", c #343F2F",
"< c #F3EFEF",
"1 c white",
"2 c #A0A69E",
"3 c #7A6843",
"4 c #136F39",
"5 c #12A855",
"6 c #CA9E73",
"7 c #5C2E06",
"8 c #853E10",
"9 c #D14F35",
"0 c #FF5DB3",
"q c #FFACD4",
"w c #FFD0DF",
"e c #747676",
"r c #D6DAD9",
"t c #FF7774",
"y c #B4B8B7",
"u c white",
/* pixels */
"    ....    ......        ...   ",
"............................... ",
"................................",
" .... ....... .. ...............",
"............XXXXoXXXX..... .....",
"..........XXOo+o@o+oOXX.........",
".........XO++@o###o@++OX........",
"........XO++$#%%&%%#$++OX.......",
".......XO++$*%+++++%*$++OX.. ...",
".......XO++*$$$$$$$$$*++OX......",
"......XO+++++$$$$$$$+++++OX.....",
"......XO+++O+++++++++O+++OX.....",
"......XO+++O+++++++++O+++OX.....",
"......XO+++O+O+O+O+O+O+++OX.....",
"......XO+++=---;;;---=+++OX.....",
"......XO:++->,<;;;<,>-++:OX.....",
"... ..XO:+$-1,2;;;2,1-$+:OX.....",
"......XO3+$=144;;;441=$+3OX.....",
"......XOO++=;55;;;55;=++OOX.....",
"......XOO++:=;;;;;;;=:++OOX.....",
"......XOO++36:=====:63++OOX.....",
"......XO7++83333333338++7OX.....",
"......XO7O+890qw;wq098+O7OX.....",
".......er1O79ttqwqtt97O1re......",
".......3;;y78ttttttt87y;;3......",
".......3;=30099ttt99003=;3......",
"........33808qqwwwqq80833.......",
" .......78899twrrrwt99887.... ..",
"........7899ttr111rtt9987.......",
"........7899tyyrrryyt9987.......",
".........779yr11111ry977........",
".    ......7eeyyyyyee7........  "
};
