/* XPM */
static char *result[] = {
/* columns rows colors chars-per-pixel */
"96 128 36 1 ",
"  c #343F2F",
". c #5C2E06",
"X c #136F39",
"o c #534721",
"O c #663450",
"+ c #3B6D5D",
"@ c #7A6843",
"# c #747676",
"$ c #853E10",
"% c #C70000",
"& c #FF2627",
"* c #987B31",
"= c #D14F35",
"- c #FF7774",
"; c #12A855",
": c #C79D00",
"> c #E3B700",
", c #FFD600",
"< c #FFFC00",
"1 c #CCAD47",
"2 c #CA9E73",
"3 c #E6D86C",
"4 c #FF5DB3",
"5 c #A0A69E",
"6 c #B4B8B7",
"7 c #DDBD9C",
"8 c #EEDAB3",
"9 c #F7F2A6",
"0 c #FFACD4",
"q c #D6DAD9",
"w c #FFD0DF",
"e c #FDF0C5",
"r c #EFEFEF",
"t c #F3EFEF",
"y c white",
"u c None",
/* pixels */
"uuuuuuuuuuuuuuuuuuuuuuuuuuuuuuuuuuuuuuuuuuuuuuuuuuuuuuuuuuuuuuuuuuuuuuuuuuuuuuuuuuuuuuuuuuuuuuuu",
"uuuuuuuuuuuuuuuuuuuuuuuuuuuuuuuuuuuuuuuuuuuuuuuuuuuuuuuuuuuuuuuuuuuuuuuuuuuuuuuuuuuuuuuuuuuuuuuu",
"uuuuuuuuuuuuuuuuuuuuuuuuuuuuuuuuuuuuuuuuuuuuuuuuuuuuuuuuuuuuuuuuuuuuuuuuuuuuuuuuuuuuuuuuuuuuuuuu",
"uuuuuuuuuuuuuuuuuuuuuuuuuuuuuuuuuuuuuuuuuuuuuuuuuuuuuuuuuuuuuuuuuuuuuuuuuuuuuuuuuuuuuuuuuuuuuuuu",
"uuuuuuuuuuuuuuuuuuuuuuuuuuuuuuuuuuuuuuuuuuuu****o****uuuuuuuuuuuuuuuuuuuuuuuuuuuuuuuuuuuuuuuuuuu",
"uuuuuuuuuuuu****o****uuuuuuuuuuuuuuuuuuuuu**1o3o<o3o1**uuuuuuuuuuuuuuuuuuuuu****o****uuuuuuuuuuu",
"uuuuuuuuuu**1o3o<o3o1**uuuuuuuuuuuuuuuuuu*133<o,,,o<331*uuuuuuuuuuuuuuuuuu**1o3o<o3o1**uuuuuuuuu",
"uuuuuuuuu*133<o,,,o<331*uuuuuuuuuuuuuuuu*1339,>>&>>,9331*uuuuuuuuuuuuuuuu*133<o,,,o<331*uuuuuuuu",
"uuuuuuuu*1339,>>&>>,9331*uuuuuuuuuuuuuu*1339:>33333>:9331*uuuuuuuuuuuuuu*1339,>>&>>,9331*uuuuuuu",
"uuuuuuu*1339:>33333>:9331*uuuuuuuuuuuuu*133:999999999:331*uuuuuuuuuuuuu*1339:>33333>:9331*uuuuuu",
"uuuuuuu*133:999999999:331*uuuuuuuuuuuu*1333339999999333331*uuuuuuuuuuuu*133:999999999:331*uuuuuu",
"uuuuuu*1333339999999333331*uuuuuuuuuuu*1333133333333313331*uuuuuuuuuuu*1333339999999333331*uuuuu",
"uuuuuu*1333133333333313331*uuuuuuuuuuu*1333133333333313331*uuuuuuuuuuu*1333133333333313331*uuuuu",
"uuuuuu*1333133333333313331*uuuuuuuuuuu*1333131313131313331*uuuuuuuuuuu*1333133333333313331*uuuuu",
"uuuuuu*1333131313131313331*uuuuuuuuuuu*13338+++eee+++83331*uuuuuuuuuuu*1333131313131313331*uuuuu",
"uuuuuu*13338+++eee+++83331*uuuuuuuuuuu*1733+r teeet r+3371*uuuuuuuuuuu*13338+++eee+++83331*uuuuu",
"uuuuuu*1733+r teeet r+3371*uuuuuuuuuuu*1739+y 5eee5 y+9371*uuuuuuuuuuu*1733+r teeet r+3371*uuuuu",
"uuuuuu*1739+y 5eee5 y+9371*uuuuuuuuuuu*1@398yXXeeeXXy893@1*uuuuuuuuuuu*1739+y 5eee5 y+9371*uuuuu",
"uuuuuu*1@938yXXeeeXXy893@1*uuuuuuuuuuu*11338e;;eee;;e83311*uuuuuuuuuuu*1@398yXXeeeXXy839@1*uuuuu",
"uuuuuu*13328e;;eee;;e833111*uuuuuuuuuu*113378eeeeeee873311*uuuuuuuuuu*111338e;;eee;;e82331*uuuuu",
"uuuuuu*133@78eeeeeee8733111*uuuuuuuuuu*1133@278888872@3311*uuuuuuuuuu*1113378eeeeeee87@331*uuuuu",
"uuuuuuu*33.@278888872331111*uuuuuuuuuu*1.33$@@@@@@@@@$33.1*uuuuuuuuuu*111133278888872@.33*uuuuuu",
"uuuuuuu*31$$@@@@@@@@@33.111*uuuuuuuuuu*1.13$=40wew04=$31.1*uuuuuuuuuu*111.33@@@@@@@@@$$13*uuuuuu",
"uuuuuuu@16$==40wew0431-6#11*uuuuuuuuuuu#qy1.=--0w0--=.1yq#uuuuuuuuuuu*11#6-1340wew04==$61@uuuuuu",
"uuuuuuu@276.=--0w0--1qye7@*uuuuuuuuuuuu@ee6.$-------$.6ee@uuuuuuuuuuuu*@7eyq1--0w0--=.672@uuuuuu",
"uuuuuuuu@@#.$-------$@ee8@uuuuuuuuuuuuu@e8@44==---==44@8e@uuuuuuuuuuuuu@8ee@$-------$.#@@uuuuuuu",
"uuuuuuuuuu.44==---==4@877@uuuuuuuuuuuuuu@@$4$00www00$4$@@uuuuuuuuuuuuuu@778@4==---==44.uuuuuuuuu",
"uuuuuuuuu.$4$00www00$$@@@uuuuuuuuuuuuuuu.$$==-wqqqw-==$$.uuuuuuuuuuuuuuu@@@$$00www00$4$.uuuuuuuu",
"uuuuuuuu.$$=--wqqqw===$.uuuuuuuuuuuuuuuu.$==--qyyyq--==$.uuuuuuuuuuuuuuuu.$===wqqqw--=$$.uuuuuuu",
"uuuuuuuu.$=--qyyyq6-==$.uuuuuuuuuuuuuuuu.$==-66qqq66-==$.uuuuuuuuuuuuuuuu.$==-6qyyyq--=$.uuuuuuu",
"uuuuuuuu.$=-66qqq666-=.uuuuuuuuuuuuuuuuuu..=6qyyyyyq6=..uuuuuuuuuuuuuuuuuu.=-666qqq66-=$.uuuuuuu",
"uuuuuuuuu.$-qyyyqq##..uuuuuuuuuuuuuuuuuuuuu.##66666##.uuuuuuuuuuuuuuuuuuuuu..##qqyyyq-$.uuuuuuuu",
"uuuuuuuuuuuuuuuuuuuuuuuuuuuuuuuuuuuuuuuuuuuuuuuuuuuuuuuuuuuuuuuuuuuuuuuuuuuuuuuuuuuuuuuuuuuuuuuu",
"uuuuuuuuuuuuuuuuuuuuuuuuuuuuuuuuuuuuuuuuuuuuuuuuuuuuuuuuuuuuuuuuuuuuuuuuuuuuuuuuuuuuuuuuuuuuuuuu",
"uuuuuuuuuuuuuuuuuuuuuuuuuuuuuuuuuuuuuuuuuuuuuuuuuuuuuuuuuuuuuuuuuuuuuuuuuuuuuuuuuuuuuuuuuuuuuuuu",
"uuuuuuuuuuuuuuuuuuuuuuuuuuuuuuuuuuuuuuuuuuuuuuuuuuuuuuuuuuuuuuuuuuuuuuuuuuuuuuuuuuuuuuuuuuuuuuuu",
"uuuuuuuuuuuuuuuuuuuuuuuuuuuuuuuuuuuuuuuuuuouu********uuuuuuuuuuuuuuuuuuuuuuuuuuuuuuuuuuuuuuuuuuu",
"uuuuuuuuuuouu********uuuuuuuuuuuuuuuuuuuuo,o*o1333311**uuuuuuuuuuuuuuuuuuuouu********uuuuuuuuuuu",
"uuuuuuuuuo,o*o1333311**uuuuuuuuuuuuuuuuuo:>,o<333339331*uuuuuuuuuuuuuuuuuo,o*o1333311**uuuuuuuuu",
"uuuuuuuuo:>,o<333339331*uuuuuuuuuuuuuuuuo:%>>,<333339331*uuuuuuuuuuuuuuuo:>,o<333339331*uuuuuuuu",
"uuuuuuuuo:%>>,<333339331*uuuuuuuuuuuuuuu*1399>,3333399331*uuuuuuuuuuuuuuo:%>>,<333339331*uuuuuuu",
"uuuuuuuu*1399>,3333399331*uuuuuuuuuuuuuu*333999,999993333*uuuuuuuuuuuuuu*1399>,3333399331*uuuuuu",
"uuuuuuuu*333999,999993333*uuuuuuuuuuuuu*133339999999333331*uuuuuuuuuuuuu*333999,999993333*uuuuuu",
"uuuuuuu*133339999999333331*uuuuuuuuuuuu*133333333333333331*uuuuuuuuuuuu*133339999999333331*uuuuu",
"uuuuuuu*133333333333333331*uuuuuuuuuuuu*133333313333333333*uuuuuuuuuuuu*133333333333333331*uuuuu",
"uuuuuuu*133333333333333333*uuuuuuuuuuuu*131313313313333333*uuuuuuuuuuuu*133333333333333333*uuuuu",
"uuuuuuu*131313133313333333*uuuuuuuuuuuuu*@88+++833@@333333*uuuuuuuuuuuu*131313133313333333*uuuuu",
"uuuuuuuu*@88+++833@@333333*uuuuuuuuuuuuuu@8et r+338e@33333*uuuuuuuuuuuuu*@88+++833@@333333*uuuuu",
"uuuuuuuuu@8et r+338e@33333*uuuuuuuuuuuuuu@8e5 y+932e@33333*uuuuuuuuuuuuuu@8et r+338e@33333*uuuuu",
"uuuuuuuuu@8e5 y+932e@33333*uuuuuuuuuuuuuu@7eXXye9328@33333*uuuuuuuuuuuuuu@8e5 y+932e@33333*uuuuu",
"uuuuuuuuu@7eXXye9328@333331*uuuuuuuuuuuuu@2e;;ee337@133331*uuuuuuuuuuuuuu@7eXXye9328@331331*uuuu",
"uuuuuuuuu@2e;;ee337@1333333*uuuuuuuuuuuuuu@7eeee3372133131*uuuuuuuuuuuuuu@2e;;ee337@1331131*uuuu",
"uuuuuuuuuu@7eeee33721333333*uuuuuuuuuuuuuuu@27883322133131*uuuuuuuuuuuuuuu@7eeee33321131131*uuuu",
"uuuuuuuuuuu@278337221333333*uuuuuuuuuuuuuuuu@@@@33@@113111*uuuuuuuuuuuuuuuu@278873321131111*uuuu",
"uuuuuuuuuuuu@@@33@@@1333131*uuuuuuuuuuuuuuuu@70w33$$.13111*uuuuuuuuuuuuuuuuu@@@@@3331111*11*uuuu",
"uuuuuuuuuuuu@7033=$.*133*31*uuuuuuuuuuuuuuuuO40-13--=.1*11*uuuuuuuuuuuuuuuuu@70w0=33.111*11*uuuu",
"uuuuuuuuuuuuO4031--=.131*11*uuuuuuuuuuuuuuuu.=---1--=.1*11*uuuuuuuuuuuuuuuuuO40--$31=.1**1*uuuuu",
"uuuuuuuuuuuu.=-1*--=.*1**1*uuuuuuuuuuuuuuuuuO==--#qyq#**1*uuuuuuuuuuuuuuuuuu.=---.-1-q#uu*uuuuuu",
"uuuuuuuuuuuuO==*qy=$.4*uu*uuuuuuuuuuuuuuuuuO40www@ee8@.u*uuuuuuuuuuuuuuuuuuuO==--=.qye7@uuuuuuuu",
"uuuuuuuuuuuO40@8eeq#4$$.uuuuuuuuuuuuuuuuuu#6qq0--@ee7@$.uuuuuuuuuuuuuuuuuuuO40www04#ee7@uuuuuuuu",
"uuuuuuuuuu#6q6@787@-==$$.uuuuuuuuuuuuuuuu#6yyy---=@@@==$.uuuuuuuuuuuuuuuuu#qqq0--0=@77@.uuuuuuuu",
"uuuuuuuuu#6yyq=@@@=---=$.uuuuuuuuuuuuuuuu#66qq-----====$.uuuuuuuuuuuuuuuu#qyyy-----=@@$$.uuuuuuu",
"uuuuuuuuu##6q6-==-----==.uuuuuuuuuuuuuuuuu#qyy------==$.uuuuuuuuuuuuuuuu#66qqqq---===$$$$.uuuuuu",
"uuuuuuuuu#666qq------=$.uuuuuuuuuuuuuuuuuuu##66$$$$....uuuuuuuuuuuuuuuuuu#qyyyq--===$$$$.uuuuuuu",
"uuuuuuuuuuuuuuuuuuuuuuuuuuuuuuuuuuuuuuuuuuuuuuuuuuuuuuuuuuuuuuuuuuuuuuuuuuuuuuuuuuuuuuuuuuuuuuuu",
"uuuuuuuuuuuuuuuuuuuuuuuuuuuuuuuuuuuuuuuuuuuuuuuuuuuuuuuuuuuuuuuuuuuuuuuuuuuuuuuuuuuuuuuuuuuuuuuu",
"uuuuuuuuuuuuuuuuuuuuuuuuuuuuuuuuuuuuuuuuuuuuuuuuuuuuuuuuuuuuuuuuuuuuuuuuuuuuuuuuuuuuuuuuuuuuuuuu",
"uuuuuuuuuuuuuuuuuuuuuuuuuuuuuuuuuuuuuuuuuuuuuuuuuuuuuuuuuuuuuuuuuuuuuuuuuuuuuuuuuuuuuuuuuuuuuuuu",
"uuuuuuuuuuuuuuuuuuuuuuuuuuuuuuuuuuuuuuuuuuuu********uuouuuuuuuuuuuuuuuuuuuuuuuuuuuuuuuuuuuuuuuuu",
"uuuuuuuuuuuu********uuouuuuuuuuuuuuuuuuuuu**1133331o*o,ouuuuuuuuuuuuuuuuuuuu********uuouuuuuuuuu",
"uuuuuuuuuu**1133331o*o,ouuuuuuuuuuuuuuuuu*133933333<o,>:ouuuuuuuuuuuuuuuuu**1133331o*o,ouuuuuuuu",
"uuuuuuuuu*133933333<o,>:ouuuuuuuuuuuuuuu*133933333<,>>%:ouuuuuuuuuuuuuuuu*133933333<o,>:ouuuuuuu",
"uuuuuuuu*133933333<,>>%:ouuuuuuuuuuuuuu*1339933333,>9931*uuuuuuuuuuuuuuu*133933333<,>>%:ouuuuuuu",
"uuuuuuu*1339933333,>9931*uuuuuuuuuuuuuu*333399999,999333*uuuuuuuuuuuuuu*1339933333,>9931*uuuuuuu",
"uuuuuuu*333399999,999333*uuuuuuuuuuuuu*133333999999933331*uuuuuuuuuuuuu*333399999,999333*uuuuuuu",
"uuuuuu*133333999999933331*uuuuuuuuuuuu*133333333333333331*uuuuuuuuuuuu*133333999999933331*uuuuuu",
"uuuuuu*133333333333333331*uuuuuuuuuuuu*333333333313333331*uuuuuuuuuuuu*133333333333333331*uuuuuu",
"uuuuuu*333333333333333331*uuuuuuuuuuuu*333333313313313131*uuuuuuuuuuuu*333333333333333331*uuuuuu",
"uuuuuu*333333313331313131*uuuuuuuuuuuu*333333@@338+++88@*uuuuuuuuuuuuu*333333313331313131*uuuuuu",
"uuuuuu*333333@@338+++88@*uuuuuuuuuuuuu*33333@e833+r te8@uuuuuuuuuuuuuu*333333@@338+++88@*uuuuuuu",
"uuuuuu*33333@e833+r te8@uuuuuuuuuuuuuu*33333@e239+y 5e8@uuuuuuuuuuuuuu*33333@e833+r te8@uuuuuuuu",
"uuuuuu*33333@e239+y 5e8@uuuuuuuuuuuuuu*33333@8239eyXXe7@uuuuuuuuuuuuuu*33333@e239+y 5e8@uuuuuuuu",
"uuuuu*133133@8239eyXXe7@uuuuuuuuuuuuuu*133331@733ee;;e2@uuuuuuuuuuuuu*133333@8239eyXXe7@uuuuuuuu",
"uuuuu*1311331@733ee;;e2@uuuuuuuuuuuuuu*1313312733eeee7@uuuuuuuuuuuuuu*3333331@733ee;;e2@uuuuuuuu",
"uuuuu*13113112333eeee7@uuuuuuuuuuuuuuu*13133122338872@uuuuuuuuuuuuuuu*33333312733eeee7@uuuuuuuuu",
"uuuuu*111131123378872@uuuuuuuuuuuuuuuu*111311@@33@@@@uuuuuuuuuuuuuuuu*333333122733872@uuuuuuuuuu",
"uuuuu*11*1111333@@@@@uuuuuuuuuuuuuuuuu*11131.$$33w07@uuuuuuuuuuuuuuuu*1313331@@@33@@@uuuuuuuuuuu",
"uuuuu*11*111.33=0w07@uuuuuuuuuuuuuuuuu*11*1.=--31-04Ouuuuuuuuuuuuuuuu*13*331*.$=3307@uuuuuuuuuuu",
"uuuuuu*1**1.=13$--04Ouuuuuuuuuuuuuuuuu*11*1.=--1---=.uuuuuuuuuuuuuuuu*11*131.=--1304Ouuuuuuuuuuu",
"uuuuuuu*uu#q-1-.---=.uuuuuuuuuuuuuuuuuu*1**#qyq#--==Ouuuuuuuuuuuuuuuuu*1**1*.=--*1-=.uuuuuuuuuuu",
"uuuuuuuuu@7eyq.=--==Ouuuuuuuuuuuuuuuuuuu*u.@8ee@www04Ouuuuuuuuuuuuuuuuu*uu*4.$=yq*==Ouuuuuuuuuuu",
"uuuuuuuuu@7ee#40www04Ouuuuuuuuuuuuuuuuuuu.$@7ee@--0qq6#uuuuuuuuuuuuuuuuuu.$$4#qee8@04Ouuuuuuuuuu",
"uuuuuuuuu.@77@=0--0qqq#uuuuuuuuuuuuuuuuu.$==@@@=---yyy6#uuuuuuuuuuuuuuuu.$$==-@787@6q6#uuuuuuuuu",
"uuuuuuuu.$$@@=-----yyyq#uuuuuuuuuuuuuuuu.$====-----qq66#uuuuuuuuuuuuuuuu.$=---=@@@=qyy6#uuuuuuuu",
"uuuuuuu.$$$$===---qqqq66#uuuuuuuuuuuuuuuu.$==------yyq#uuuuuuuuuuuuuuuuu.==-----==-6q6##uuuuuuuu",
"uuuuuuuu.$$$$===--qyyyq#uuuuuuuuuuuuuuuuuu....$$$$66##uuuuuuuuuuuuuuuuuuu.$=------qq666#uuuuuuuu",
"uuuuuuuuuuuuuuuuuuuuuuuuuuuuuuuuuuuuuuuuuuuuuuuuuuuuuuuuuuuuuuuuuuuuuuuuuuuuuuuuuuuuuuuuuuuuuuuu",
"uuuuuuuuuuuuuuuuuuuuuuuuuuuuuuuuuuuuuuuuuuuuuuuuuuuuuuuuuuuuuuuuuuuuuuuuuuuuuuuuuuuuuuuuuuuuuuuu",
"uuuuuuuuuuuuuuuuuuuuuuuuuuuuuuuuuuuuuuuuuuuuuuuuuuuuuuuuuuuuuuuuuuuuuuuuuuuuuuuuuuuuuuuuuuuuuuuu",
"uuuuuuuuuuuuuuuuuuuuuuuuuuuuuuuuuuuuuuuuuuuuuuuuouuuuuuuuuuuuuuuuuuuuuuuuuuuuuuuuuuuuuuuuuuuuuuu",
"uuuuuuuuuuuuuuuuouuuuuuuuuuuuuuuuuuuuuuuuuuu*********uuuuuuuuuuuuuuuuuuuuuuuuuuuouuuuuuuuuuuuuuu",
"uuuuuuuuuuuu*********uuuuuuuuuuuuuuuuuuuuu**113333311**uuuuuuuuuuuuuuuuuuuuu*********uuuuuuuuuuu",
"uuuuuuuuuu**113333311**uuuuuuuuuuuuuuuuuu*1339333339331*uuuuuuuuuuuuuuuuuu**113333311**uuuuuuuuu",
"uuuuuuuuu*1339333339331*uuuuuuuuuuuuuuuu*133933333339331*uuuuuuuuuuuuuuuu*1339333339331*uuuuuuuu",
"uuuuuuuu*133933333339331*uuuuuuuuuuuuuu*13399333333399331*uuuuuuuuuuuuuu*133933333339331*uuuuuuu",
"uuuuuuu*13399333333399331*uuuuuuuuuuuuu*13399333333399331*uuuuuuuuuuuuu*13399333333399331*uuuuuu",
"uuuuuuu*13399333333399331*uuuuuuuuuuuu*1333999333339993331*uuuuuuuuuuuu*13399333333399331*uuuuuu",
"uuuuuu*1333999333339993331*uuuuuuuuuuu*1333399999999933331*uuuuuuuuuuu*1333999333339993331*uuuuu",
"uuuuuu*1333399999999933331*uuuuuuuuuuu*1333339999999333331*uuuuuuuuuuu*1333399999999933331*uuuuu",
"uuuuuu*1333339999999333331*uuuuuuuuuuu*1333333333333333331*uuuuuuuuuuu*1333339999999333331*uuuuu",
"uuuuuu*1333333333333333331*uuuuuuuuuuu*1333333333333333331*uuuuuuuuuuu*1333333333333333331*uuuuu",
"uuuuuu*1333333333333333331*uuuuuuuuuuu*1333333333333333331*uuuuuuuuuuu*1333333333333333331*uuuuu",
"uuuuuu*1333333333333333331*uuuuuuuuuuu*1333333333333333331*uuuuuuuuuuu*1333333333333333331*uuuuu",
"uuuuuu*3333333333333333331*uuuuuuuuuuu*1393333333333333931*uuuuuuuuuuu*1333333333333333333*uuuuu",
"uuuuuu*3933333333333333331*uuuuuuuuuuu*1139333333333339311*uuuuuuuuuuu*1333333333333333393*uuuuu",
"uuuuu*1339333333333333931*uuuuuuuuuuuu*1133399333339933311*uuuuuuuuuuuu*1393333333333339331*uuuu",
"uuuuu*1333399333339939331*uuuuuuuuuuuu*1133133399933313311*uuuuuuuuuuuu*1339399333339933331*uuuu",
"uuuuu*11331333999333133.1*uuuuuuuuuuuu*1113133139313313111*uuuuuuuuuuuu*1.33133399933313311*uuuu",
"uuuuu*11331331393133131$.*uuuuuuuuuuuu*1*131331333133131*1*uuuuuuuuuuuu*.$13133139313313311*uuuu",
"uuuuu*1*131331333133131=.*uuuuuuuuuuuuu**111131131131111**uuuuuuuuuuuuu*.=131331333133131*1*uuuu",
"uuuuuu**131131131131111yq#uuuuuuuuuuuuu@e*11*1111111*11*e@uuuuuuuuuuuuu#qy111131131131131**uuuuu",
"uuuuuuuu*11*1111111*11*qe8@uuuuuuuuuuuu@e8*1*11*1*11*1*8e@uuuuuuuuuuuu@8eq*11*1111111*11*uuuuuuu",
"uuuuuuuuu*1*11*1*11*1*@ee7@uuuuuuuuuuuuu@@$*=**w*w**=*$@@uuuuuuuuuuuuu@7ee@*1*11*1*11*1*uuuuuuuu",
"uuuuuuuuu.*4**0*w**0*4$@@@uuuuuuuuuuuuuu.$$==-------==$$.uuuuuuuuuuuuuu@@@$4*0**w*0**4*.uuuuuuuu",
"uuuuuuuu.$$==-------==$$.uuuuuuuuuuuuuuu.$==---------==$.uuuuuuuuuuuuuuu.$$==-------==$$.uuuuuuu",
"uuuuuuuu.$==---------=$$.uuuuuuuuuuuuuuu.$=-----------=$.uuuuuuuuuuuuuuu.$$=---------==$.uuuuuuu",
"uuuuuuuu.$=---------=$..uuuuuuuuuuuuuuuuu..=---------=..uuuuuuuuuuuuuuuuu..$=---------=$.uuuuuuu",
"uuuuuuuuu.$=------==..uuuuuuuuuuuuuuuuuuuuu...........uuuuuuuuuuuuuuuuuuuuu..==------=$.uuuuuuuu"
};
