/* XPM */
static char *result[] = {
/* columns rows colors chars-per-pixel */
"48 48 66 1 ",
"  c black",
". c #370F03",
"X c #301807",
"o c #2C2222",
"O c #342828",
"+ c #3E3030",
"@ c #570D00",
"# c #461505",
"$ c #571C08",
"% c #571F0D",
"& c #54331A",
"* c #73250E",
"= c #73260E",
"- c #4E4341",
"; c #5C4E4D",
": c #675C53",
"> c #6D5D5B",
", c #796C62",
"< c #813600",
"1 c #943315",
"2 c #8D4700",
"3 c #934502",
"4 c #994100",
"5 c #9D500B",
"6 c #B86804",
"7 c #C36A1E",
"8 c #C97916",
"9 c #DB781E",
"0 c #845F44",
"q c #DB8214",
"w c #D5841F",
"e c #EB8F1D",
"r c #E18E27",
"t c #EC9623",
"y c #ED982B",
"u c #EB9D36",
"i c #EC9F35",
"p c #EF9E38",
"a c #AE8A5A",
"s c #8F8074",
"d c #E79041",
"f c #D5A643",
"g c #F1A842",
"h c #F5B150",
"j c #F9BF5E",
"k c #C9A663",
"l c #CCA777",
"z c #D2AA74",
"x c #F2C758",
"c c #FAC866",
"v c #FBC968",
"b c #FFD979",
"n c #FFE37F",
"m c #E7CD9D",
"M c #FFE49A",
"N c #E7CFA3",
"B c #F3DBAF",
"V c #F9DDBB",
"C c #F9E9BB",
"Z c #FFF5B5",
"A c #FAECD0",
"S c #FCF4DF",
"D c #FFF5E2",
"F c #FFFBF3",
"G c white",
"H c None",
/* pixels */
"H                                              H",
" ss ssssssss ssssss ssssssss ssssss ssssssss ss ",
" >+ s>>>>>>+ s>>>>+ s>>>>>>+ s>>>>+ s>>>>>>+ s> ",
" >+ s>>>>>>+ s>>>>+ s>>>>>>+ s>>>>+ s>>>>>>+ s> ",
" ++ ++++++++ ++++++ ++++++++ ++++++ ++++++++ ++ ",
"                                                ",
" ssss ssss ssssssssss ssss ssssssssss ssss ssss ",
" s>>+ s>>+ s>>>>>>>>+ s>>+ s>>>>>>>>+ s>>+ s>>+ ",
" s>>+ s>>+ s>>>>>>>>+ s>>+ s>>>>>>>>+ s>>+ s>>+ ",
" ++++ ++++ ++++++++++ ++++ ++++++++++ ++++ ++++ ",
"                   <<<<<<<<<<                   ",
" ss ssssssss ssss<6tihhhhhhi96<ssss ssssssss ss ",
" >+ s>>>>>>+ s>><tihhhhhhhbhhi9<>>+ s>>>>>>+ s> ",
" >+ s>>>>>>+ s><tihjhhhZhhhjhhi9<>+ s>>>>>>+ s> ",
" >+ ++++++++ s&<ihhhhhhhhhhhhZhi<&+ ++++++++ s> ",
" ++          &<thvbvjhhhhbhgjhhh9<&          ++ ",
"    ssssssss&M<hvbbbbbjjhjhibhhi9<M&ssssssss    ",
" ss s>>>>>>0MG@tbvbvbbbbjbgdjghvt@GM0>>>>>>+ ss ",
" >+ s>>>>>>aGG@6thZhZvbbvbidvdvt6@GGa>>>>>>+ s> ",
" >+ s>>>>>XMGN7xx73337wwrrrw863ff lGMX>>>>>+ s> ",
" ++ ++++++aGG.7n71*%7xxxxxxxxxf11= GGa++++++ ++ ",
"         XNGG.*1*11*1*77nGnnn7*=#= GGNX         ",
" ssss sssXGGND.$$*1*11117xxx711*$# NGGXsss ssss ",
" s>>+ s>>XGGlD@..$#$*$**17x**$#$$.ClGGX;>+ s>>+ ",
" s>>+ s>>XGGlD5y6.#$$#$$###$#.#$.@BlGGX->+ s>>+ ",
" ++++ +++XGGlD6chc62..$$...$.#26q2mlGGXo++ ++++ ",
"         XGGlDC6ycphphhhpphpuqq62kmNGGX         ",
" ss sssssXGGNDFm6hhZbbcchhhuuqq2kmDVGGX:ssss ss ",
" >+ s>>>>XaGGVFCm26hyhhhpphpe62kmAVAGzX->>>+ s> ",
" >+ s>>>>>XGGNAFFCm4222222224kmmFANGGX-->>>+ s> ",
" ++ s>>>>>XAGAVAFFFFFFFFFSSCCCCFANFGAX-;>>>+ ++ ",
"    +++++++0GGANFFFFFFFFFFFFFFFFNAGG0oo+++++    ",
" ss        XAGFASFSSSSSSSSSSFFSNAFGAX        ss ",
" >+ ssssssss0AFGASVSSSSSSSFFSSNAGFA0::ssssss s> ",
" >+ s>>>>>>+ XAFFFGVVVVVVVVVVGGGGAX :;>>>>>+ s> ",
" >+ s>>>>>>+ ,X0AGGGGGGGGGGGGGGA0Xo ,>>>>>>+ s> ",
" ++ ++++++++ +OoXX0AGGGGGGGGA0XXooo ++++++++ ++ ",
"                   XXXXXXXXXX                   ",
" ssss ssss ssssss,::: :::: :::::,ssss ssss ssss ",
" s>>+ s>>+ s>>>>>>>>O :--o :-;>>>>>>+ s>>+ s>>+ ",
" s>>+ s>>+ s>>>>>>>>+ s>>+ s>>>>>>>>+ s>>+ s>>+ ",
" ++++ ++++ ++++++++++ ++++ ++++++++++ ++++ ++++ ",
"                                                ",
" ss ssssssss ssssss ssssssss ssssss ssssssss ss ",
" >+ s>>>>>>+ s>>>>+ s>>>>>>+ s>>>>+ s>>>>>>+ s> ",
" >+ s>>>>>>+ s>>>>+ s>>>>>>+ s>>>>+ s>>>>>>+ s> ",
" ++ ++++++++ ++++++ ++++++++ ++++++ ++++++++ ++ ",
"H                                              H"
};
