/* XPM */
static char *c190807cffb14e6ca2cee7dde7d3b35fnkXsOFiCflWGVmzl[] = {
/* columns rows colors chars-per-pixel */
"48 48 10 1 ",
"  c None",
". c #211F30",
"X c #A4CC42",
"o c #FBCDD6",
"O c #F89CC0",
"+ c #72A11D",
"@ c #EA71BD",
"# c #BA3FAF",
"$ c #28860F",
"% c black",
/* pixels */
"                                                ",
"                                                ",
"                                                ",
"                                                ",
"                                                ",
"                                                ",
"                                                ",
"                                                ",
"                                                ",
"                                                ",
"                                                ",
"                                                ",
"                                                ",
"                                                ",
"                                                ",
"                                                ",
"                                                ",
"                                                ",
"                                                ",
"               ..................               ",
"               .XoOOOOOOOOOOOOoX.               ",
"               .+O@.@@@@@@@@.@O+.               ",
"               .+O@@O@@@@@@O@@O+.               ",
"               .+O#@.@O@@O@.@#O+.               ",
"               .$+O@@@.@@.@@@O+$.               ",
"                .$O##@@@@@@##O$.                ",
"                .$$OO######OO$$.                ",
"                 .$$$OOOOOO$$$.                 ",
"                  .$$$$$$$$$$.                  ",
"                   ..$$$$$$..                   ",
"                     ......                     ",
"                                                ",
"                                                ",
"                                                ",
"                                                ",
"                                                ",
"                                                ",
"                                                ",
"                                                ",
"                                                ",
"                                                ",
"                                                ",
"                                                ",
"                                                ",
"                                                ",
"                                                ",
"                                                ",
"                                                "
};
