/* XPM */
static char *result[] = {
/* columns rows colors chars-per-pixel */
"48 48 13 1 ",
"  c black",
". c #1F1818",
"X c #362E2D",
"o c #47403A",
"O c #494D4B",
"+ c #767D7A",
"@ c #853E33",
"# c #8F8074",
"$ c #F5B97D",
"% c #B0A28D",
"& c #A9B1AE",
"* c #EADFC2",
"= c None",
/* pixels */
"=                                              =",
" oo oooooooo oooooo oooooooo oooooo oooooooo oo ",
" X. oXXXXXX. oXXXX. oXXXXXX. oXXXX. oXXXXXX. oX ",
" X. oXXXXXX. oXXXX. oXXXXXX. oXXXX. oXXXXXX. oX ",
" .. ........ ...... ........ ...... ........ .. ",
"                                                ",
" oooo oooo oooooooooo oooo oooooooooo oooo oooo ",
" oXX. oXX. oXXXXXXXX. oXX. oXXXXXXXX. oXX. oXX. ",
" oXX. oXX. oXXXXXXXX. oXX. oXXXXXXXX. oXX. oXX. ",
" .... .... .......... .... .......... .... .... ",
"                                                ",
" oo oooooooo oooooo oooooooo oooooo oooooooo oo ",
" X. oXXXXXX. oXXXX. oXXXXXX. oXXXX. oXXXXXX. oX ",
" X. oXXXXXX. oXXXX. oXXXXXX. oXXXX. oXXXXXX. oX ",
" X. ........ oXXXX. ........ oXXXX. ........ oX ",
" ..          ......          ......          .. ",
"    ********        ********        ********    ",
" oo *%%%%%%# ****** *%%%%%%# ****** *%%%%%%# oo ",
" X. *%%%%%%# *%%%%# *%%%%%%# *%%%%# *%%%%%%# oX ",
" X. *%%%%%%# *%%%%# *%%%%%%# *%%%%# *%%%%%%# oX ",
" .. ######## *%%%%# ######## *%%%%# ######## .. ",
"             ######          ######             ",
" oooo ***                              *** oooo ",
" oXX. *% $$                          $$ %# oXX. ",
" oXX. *% $@                          $@ %# oXX. ",
" .... ## $@                          $@ ## .... ",
"                                                ",
" oo **** &&                          && **** oo ",
" X. *%%% &+                          &+ %%%# oX ",
" X. *%%%                                %%%# oX ",
" .. *%%% $@                          $@ %%%# .. ",
"    #### $@                          $@ ####    ",
" oo      $@                          $@      oo ",
" X. **** $@                          $@ **** oX ",
" X. *%%% $@ &                      & $@ %%%# oX ",
" X. *%%% $@ +                      + $@ %%%# oX ",
" .. #### $@                          $@ #### .. ",
"         $@                          $@         ",
" oooo ** $@                          $@ ** oooo ",
" oXX. *% $@                          $@ %# oXX. ",
" oXX. *%                                %# oXX. ",
" .... ## +O                          +O ## .... ",
"         OO                          OO         ",
" oo ****                                **** oo ",
" X. *%%% $@                          $@ %%%# oX ",
" X. *%%% $@                          $@ %%%# oX ",
" .. #### @@                          @@ #### .. ",
"=                                              ="
};
