/* XPM */
static char *_ca847bf7e264502819978326d3c0093U5A1CfTpXBySTHjP[] = {
/* columns rows colors chars-per-pixel */
"48 48 14 1 ",
"  c None",
". c black",
"X c #1F1818",
"o c #362E2D",
"O c #47403A",
"+ c #494D4B",
"@ c #767D7A",
"# c #853E33",
"$ c #CA7538",
"% c #8F8074",
"& c #F5B97D",
"* c #B0A28D",
"= c #A9B1AE",
"- c #EADFC2",
/* pixels */
" .............................................. ",
".OO.OOOOOOOO.OOOOOO.OOOOOOOO.OOOOOO.OOOOOOOO.OO.",
".oX.OooooooX.OooooX.OooooooX.OooooX.OooooooX.Oo.",
".oX.OooooooX.OooooX.OooooooX.OooooX.OooooooX.Oo.",
".XX.XXXXXXXX.XXXXXX.XXXXXXXX.XXXXXX.XXXXXXXX.XX.",
"................................................",
".OOOO.OOOO.OOOOOOOOOO.OOOO.OOOOOOOOOO.OOOO.OOOO.",
".OooX.OooX.OooooooooX.OooX.OooooooooX.OooX.OooX.",
".OooX.OooX.OooooooooX.OooX.OooooooooX.OooX.OooX.",
".XXXX.XXXX.XXXXXXXXXX.XXXX.XXXXXXXXXX.XXXX.XXXX.",
"................................................",
".OO.OOOOOOOO.OOOOOO.OOOOOOOO.OOOOOO.OOOOOOOO.OO.",
".oX.OooooooX.OooooX.OooooooX.OooooX.OooooooX.Oo.",
".oX.OooooooX.OooooX.OooooooX.OooooX.OooooooX.Oo.",
".oX.XXXXXXXX.OooooX.XXXXXXXX.OooooX.XXXXXXXX.Oo.",
".XX..........XXXXXX..........XXXXXX..........XX.",
"....--------........--------........--------....",
".OO.-******%.------.-******%.------.-******%.OO.",
".oX.-******%.-****%.-******%.-****%.-******%.Oo.",
".oX.-******%.-****%.-******%.-****%.-******%.Oo.",
".XX.%%%%%%%%.-****%.%%%%%%%%.-****%.%%%%%%%%.XX.",
".............%%%%%%..........%%%%%%.............",
".OOOO.---..............................---.OOOO.",
".OooX.-*.&&&&.&&&&.&&&&..&&&&.&&&&.&&&&.*%.OooX.",
".OooX.-*.&$$#.&$$#.&$$#..&$$#.&$$#.&$$#.*%.OooX.",
".XXXX.%%.&$$#.&$$#.&$$#..&$$#.&$$#.&$$#.%%.XXXX.",
"................................................",
".OO.----.============@@..============@@.----.OO.",
".oX.-***.=@@@@@@@@@@@@+..=@@@@@@@@@@@@+.***%.Oo.",
".oX.-***................................***%.Oo.",
".XX.-***.&###.&###.&###..&###.&###.&###.***%.XX.",
"....%%%%.&$$#.&$$#.&$$#..&$$#.&$$#.&$$#.%%%%....",
".OO......&$$#.&$$#.&$$#..&$$#.&$$#.&$$#......OO.",
".oX.----.&$$#.&$$#.&..#..&..#.&$$#.&$$#.----.Oo.",
".oX.-***.&$$#.&$$#..==....==..&$$#.&$$#.***%.Oo.",
".oX.-***.&$$#.&$$#..=@....=@..&$$#.&$$#.***%.Oo.",
".XX.%%%%.&$$#.&$$#.#..#..#..#.&$$#.&$$#.%%%%.XX.",
".........&$$#.&$$#.&###..&###.&$$#.&$$#.........",
".OOOO.--.&$$#.&$$#.&$$#..&$$#.&$$#.&$$#.--.OOOO.",
".OooX.-*.&$$#.&$$#.&$$#..&$$#.&$$#.&$$#.*%.OooX.",
".OooX.-*................................*%.OooX.",
".XXXX.%%.=@@@@@@@@@@@@+..=@@@@@@@@@@@@+.%%.XXXX.",
".........@@++++++++++++..@@++++++++++++.........",
".OO.----................................----.OO.",
".oX.-***.&###.&###.&###..&###.&###.&###.***%.Oo.",
".oX.-***.&$$#.&$$#.&$$#..&$$#.&$$#.&$$#.***%.Oo.",
".XX.%%%%.####.####.####..####.####.####.%%%%.XX.",
" .............................................. "
};
