/* XPM */
static char *result[] = {
/* columns rows colors chars-per-pixel */
"48 48 47 1 ",
"  c black",
". c #1F1818",
"X c #362E2D",
"o c #343F2F",
"O c #5C2E06",
"+ c #136F39",
"@ c #534721",
"# c #47403A",
"$ c #3B6D5D",
"% c #494D4B",
"& c #7A6843",
"* c #747676",
"= c #767D7A",
"- c #853E10",
"; c #853E33",
": c #FF2627",
"> c #987B31",
", c #D14F35",
"< c #CA7538",
"1 c #FF7774",
"2 c #12A855",
"3 c #C79D00",
"4 c #E3B700",
"5 c #FFD600",
"6 c #FFFC00",
"7 c #8F8074",
"8 c #CCAD47",
"9 c #CA9E73",
"0 c #F5B97D",
"q c #E6D86C",
"w c #FF5DB3",
"e c #B0A28D",
"r c #A0A69E",
"t c #A9B1AE",
"y c #B4B8B7",
"u c #DDBD9C",
"i c #EEDAB3",
"p c #F7F2A6",
"a c #FFACD4",
"s c #D6DAD9",
"d c #EADFC2",
"f c #FFD0DF",
"g c #FDF0C5",
"h c #EFEFEF",
"j c #F3EFEF",
"k c white",
"l c None",
/* pixels */
"l                                              l",
" ## ######## ###### ######## ###### ######## ## ",
" X. #XXXXXX. #XXXX. #XXXXXX. #XXXX. #XXXXXX. #X ",
" X. #XXXXXX. #XXXX. #XXXXXX. #XXXX. #XXXXXX. #X ",
" .. ........ ...... ........ ...... ........ .. ",
"                                                ",
" #### #### ########## #### ########## #### #### ",
" #XX. #XX. #XXXXXXXX. #XX. #XXXXXXXX. #XX. #XX. ",
" #XX. #XX. #XXXXXXXX. #XX. #XXXXXXXX. #XX. #XX. ",
" .... .... .......... .... .......... .... .... ",
"                                                ",
" ## ######## ###### ######## ###### ######## ## ",
" X. #XXXXXX. #XXXX. #XXXXXX. #XXXX. #XXXXXX. #X ",
" X. #XXXXXX. #XXXX. #XXXXXX. #XXXX. #XXXXXX. #X ",
" X. ........ #XXXX. ........ #XXXX. ........ #X ",
" ..          ......          ......          .. ",
"    dddddddd        dddddddd        dddddddd    ",
" ## deeeeee7 dddddd deeeeee7 dddddd deeeeee7 ## ",
" X. deeeeee7 deeee7 deeeeee7 deeee7 deeeeee7 #X ",
" X. deeeeee7 deeee7 deeeeee7 deeee7 deeeeee7 #X ",
" .. 77777777 deeee7 77777777 deeee7 77777777 .. ",
"             777777>>>>@>>>> 777777             ",
" #### ddd        >>8@q@6@q@8>>         ddd #### ",
" #XX. de 0000 00>8qq6@555@6qq8>000 0000 e7 #XX. ",
" #XX. de 0<<; 0>8qqp544:445pqq8><; 0<<; e7 #XX. ",
" .... 77 0<<; >8qqp34qqqqq43pqq8>; 0<<; 77 .... ",
"              >8qq3ppppppppp3qq8>               ",
" ## dddd tttt>8qqqqqpppppppqqqqq8>ttt== dddd ## ",
" X. deee t===>8qqq8qqqqqqqqq8qqq8>====% eee7 #X ",
" X. deee     >8qqq8qqqqqqqqq8qqq8>      eee7 #X ",
" .. deee 0;;;>8qqq8q8q8q8q8q8qqq8> 0;;; eee7 .. ",
"    7777 0<<;>8qqqi$$$ggg$$$iqqq8> 0<<; 7777    ",
" ##      0<<;>8uqq$hojgggjoh$qqu8> 0<<;      ## ",
" X. dddd 0<<;>8uqp$korgggrok$pqu8> 0<<; dddd #X ",
" X. deee 0<<;>8&pqik++ggg++kipq&8> 0<<; eee7 #X ",
" X. deee 0<<;>8qq9ig22ggg22giqq888>0<<; eee7 #X ",
" .. 7777 0<<;>8qq&uigggggggiuqq888>0<<; 7777 .. ",
"         0<<; >qqO&9uiiiiiu9qq8888>0<<;         ",
" #### dd 0<<; >q8--&&&&&&&&&qqO888>0<<; dd #### ",
" #XX. de 0<<; &8y-,,wafgfawq81y*88>0<<; e7 #XX. ",
" #XX. de      &9uyO,11afa118skgu&>      e7 #XX. ",
" .... 77 t=====&&*O-1111111-&ggi&=====% 77 .... ",
"         ==%%%%%%Oww,,111,,w&iuu&%%%%%%         ",
" ## dddd        O-w-aafffaa--&&&        dddd ## ",
" X. deee 0;;; 0O--,11fsssf,,,-O;;; 0;;; eee7 #X ",
" X. deee 0<<; 0O-,11skkksy1,,-O<<; 0<<; eee7 #X ",
" .. 7777 ;;;; ;O-,1yysssyyy1,O;;;; ;;;; 7777 .. ",
"l               O-1skkkss**OO                  l"
};
