/* XPM */
static char *result[] = {
/* columns rows colors chars-per-pixel */
"48 48 57 1 ",
"  c black",
". c #301807",
"X c #2C2222",
"o c #342828",
"O c #343F2F",
"+ c #3E3030",
"@ c #5C2E06",
"# c #54331A",
"$ c #136F39",
"% c #534721",
"& c #3B6D5D",
"* c #4E4341",
"= c #5C4E4D",
"- c #675C53",
"; c #6D5D5B",
": c #7A6843",
"> c #796C62",
", c #747676",
"< c #853E10",
"1 c #FF2627",
"2 c #8A6431",
"3 c #987B31",
"4 c #D14F35",
"5 c #845F44",
"6 c #FF7774",
"7 c #12A855",
"8 c #C79D00",
"9 c #E3B700",
"0 c #FFD600",
"q c #FFFC00",
"w c #AE8A5A",
"e c #8F8074",
"r c #CCAD47",
"t c #CA9E73",
"y c #CCA777",
"u c #E6D86C",
"i c #FF5DB3",
"p c #A0A69E",
"a c #B4B8B7",
"s c #DDBD9C",
"d c #E7CFA3",
"f c #EEDAB3",
"g c #F9DDBB",
"h c #F7F2A6",
"j c #FFACD4",
"k c #D6DAD9",
"l c #FFD0DF",
"z c #FFE8CD",
"x c #FDF0C5",
"c c #FAECD0",
"v c #FCF3DF",
"b c #EFEFEF",
"n c #F3EFEF",
"m c #FDF4E2",
"M c #FFFBF3",
"N c white",
"B c None",
/* pixels */
"B                                              B",
" ee eeeeeeee eeeeee eeeeeeee eeeeee eeeeeeee ee ",
" ;+ e;;;;;;+ e;;;;+ e;;;;;;+ e;;;;+ e;;;;;;+ e; ",
" ;+ e;;;;;;+ e;;;;+ e;;;;;;+ e;;;;+ e;;;;;;+ e; ",
" ++ ++++++++ ++++++ ++++++++ ++++++ ++++++++ ++ ",
"                                                ",
" eeee eeee eeeeeeeeee eeee eeeeeeeeee eeee eeee ",
" e;;+ e;;+ e;;;;;;;;+ e;;+ e;;;;;;;;+ e;;+ e;;+ ",
" e;;+ e;;+ e;;;;;;;;+ e;;+ e;;;;;;;;+ e;;+ e;;+ ",
" ++++ ++++ ++++++++++ ++++ ++++++++++ ++++ ++++ ",
"                                                ",
" ee eeeeeeee eeeeee5555555555eeeeee eeeeeeee ee ",
" ;+ e;;;;;;+ e;;55wdccccccccdw55;;+ e;;;;;;+ e; ",
" ;+ e;;;;;;+ e#2dccccccccccccccd5#+ e;;;;;;+ e; ",
" ;+ ++++++++ #dcccczdyyyyyydzccccd# ++++++++ e; ",
" ++         #dcccdyyyyyyyyyyyyydccd#         ++ ",
"    eeeeeee5dccdyydgvvvvvvvvgdyydccd5eeeeeee    ",
" ee e;;;;;;wccdygcvccccccccccvcgdyccw;;;;;;+ ee ",
" ;+ e;;;;;.dcdygvccccccccccccccvddycd.;;;;;+ e; ",
" ;+ e;;;;;wccycccccmMMMMMMMMmcccccyccw;;;;;+ e; ",
" ++ +++++.dccdccmMMMMMMMMMMMMMMmccdccd.+++++ ++ ",
"         .ccdccmMMM3333%3333MMMMmccdcc.         ",
" eeee eee.ccycmMM33r%u%q%u%r33MMMmcycc.>ee eeee ",
" e;;+ e;;.ccycMM3ruuq%000%quur3MMMcycc.*;+ e;;+ ",
" e;;+ e;;.ccycM3ruuh0991990huur3MMcycc.*;+ e;;+ ",
" ++++ +++.NNyc3ruuh89uuuuu98huur3McdNN.X++ ++++ ",
"         .NNdc3ruu8hhhhhhhhh8uur3McgNN.         ",
" ee eeeee.NNN3ruuuuuhhhhhhhuuuuur3gNNN.-eeee ee ",
" ;+ e;;;;;.NN3ruuuruuuuuuuuuruuur3dNN.**;;;+ e; ",
" ;+ e;;;;;.NN3ruuuruuuuuuuuuruuur3dNN.*=;;;+ e; ",
" ++ e;;;;;;5N3ruuururururururuuur3NN5**;;;;+ ++ ",
"    +++++++.N3ruuuf&&&xxx&&&fuuur3NN.Xo+++++    ",
" ee         53rsuu&bOnxxxnOb&uusr3N5         ee ",
" ;+ eeeeeeee 3rsuh&NOpxxxpON&husr3. ->eeeeee e; ",
" ;+ e;;;;;;+ 3r:hufN$$xxx$$Nfhu:r3X >;;;;;;+ e; ",
" ;+ e;;;;;;+ 3ruutfx77xxx77xfuurrr3 e;;;;;;+ e; ",
" ++ ++++++++ 3ruu:sfxxxxxxxfsuurrr3 ++++++++ ++ ",
"              3uu@:tsfffffstuurrrr3             ",
" eeee eeee eee3ur<<:::::::::uu@rrr3ee eeee eeee ",
" e;;+ e;;+ e;;:ra<44ijlxljiur6a,rr3;+ e;;+ e;;+ ",
" e;;+ e;;+ e;;:tsa@466jlj66rkNxs:3;;+ e;;+ e;;+ ",
" ++++ ++++ ++++::,@<6666666<:xxf:++++ ++++ ++++ ",
"                 @ii4466644i:fss:               ",
" ee eeeeeeee eee@<i<jjllljj<<:::eee eeeeeeee ee ",
" ;+ e;;;;;;+ e;@<<466lkkkl444<@;;;+ e;;;;;;+ e; ",
" ;+ e;;;;;;+ e;@<466kNNNka644<@;;;+ e;;;;;;+ e; ",
" ++ ++++++++ ++@<46aakkkaaa64@+++++ ++++++++ ++ ",
"B               @<6kNNNkk,,@@                  B"
};
