/* XPM */
static char *result[] = {
/* columns rows colors chars-per-pixel */
"48 48 38 1 ",
"  c black",
". c #343F2F",
"X c #3E3030",
"o c #5C2E06",
"O c #136F39",
"+ c #534721",
"@ c #3B6D5D",
"# c #6D5D5B",
"$ c #7A6843",
"% c #747676",
"& c #853E10",
"* c #FF2627",
"= c #987B31",
"- c #D14F35",
"; c #FF7774",
": c #12A855",
"> c #C79D00",
", c #E3B700",
"< c #FFD600",
"1 c #FFFC00",
"2 c #8F8074",
"3 c #CCAD47",
"4 c #CA9E73",
"5 c #E6D86C",
"6 c #FF5DB3",
"7 c #A0A69E",
"8 c #B4B8B7",
"9 c #DDBD9C",
"0 c #EEDAB3",
"q c #F7F2A6",
"w c #FFACD4",
"e c #D6DAD9",
"r c #FFD0DF",
"t c #FDF0C5",
"y c #EFEFEF",
"u c #F3EFEF",
"i c white",
"p c None",
/* pixels */
"p                                              p",
" 22 22222222 222222 22222222 222222 22222222 22 ",
" #X 2######X 2####X 2######X 2####X 2######X 2# ",
" #X 2######X 2####X 2######X 2####X 2######X 2# ",
" XX XXXXXXXX XXXXXX XXXXXXXX XXXXXX XXXXXXXX XX ",
"                                                ",
" 2222 2222 2222222222 2222 2222222222 2222 2222 ",
" 2##X 2##X 2########X 2##X 2########X 2##X 2##X ",
" 2##X 2##X 2########X 2##X 2########X 2##X 2##X ",
" XXXX XXXX XXXXXXXXXX XXXX XXXXXXXXXX XXXX XXXX ",
"                                                ",
" 22 22222222 222222 22222222 222222 22222222 22 ",
" #X 2######X 2####X 2######X 2####X 2######X 2# ",
" #X 2######X 2####X 2######X 2####X 2######X 2# ",
" #X XXXXXXXX 2####X XXXXXXXX 2####X XXXXXXXX 2# ",
" XX          XXXXXX          XXXXXX          XX ",
"    22222222        22222222        22222222    ",
" 22 2######X 222222 2######X 222222 2######X 22 ",
" #X 2######X 2####X 2######X 2####X 2######X 2# ",
" #X 2######X 2####X 2######X 2####X 2######X 2# ",
" XX XXXXXXXX XXXXXX XXXXXXXX XXXXXX XXXXXXXX XX ",
"                   ====+====                    ",
" 2222 2222 222222==3+5+1+5+3==2222222 2222 2222 ",
" 2##X 2##X 2####=3551+<<<+1553=#####X 2##X 2##X ",
" 2##X 2##X 2###=355q<,,*,,<q553=####X 2##X 2##X ",
" XXXX XXXX XXX=355q>,55555,>q553=XXXX XXXX XXXX ",
"              =355>qqqqqqqqq>553=               ",
" 22 22222222 =355555qqqqqqq555553=2 22222222 22 ",
" #X 2######X =3555355555555535553=X 2######X 2# ",
" #X 2######X =3555355555555535553=X 2######X 2# ",
" XX 2######X =3555353535353535553=X 2######X XX ",
"    XXXXXXXX =35550@@@ttt@@@05553=  XXXXXXXX    ",
" 22          =3955@y.utttu.y@5593=2          22 ",
" #X 22222222 =395q@i.7ttt7.i@q593=X 22222222 2# ",
" #X 2######X =3$q50iOOtttOOi0q5$3=X 2######X 2# ",
" #X 2######X =35540t::ttt::t055333= 2######X 2# ",
" XX XXXXXXXX =355$90ttttttt0955333= XXXXXXXX XX ",
"              =55o$490000094553333=             ",
" 2222 2222 222=53&&$$$$$$$$$55o333=22 2222 2222 ",
" 2##X 2##X 2##$38&--6wrtrw653;8%33=#X 2##X 2##X ",
" 2##X 2##X 2##$498o-;;wrw;;3eit9$=##X 2##X 2##X ",
" XXXX XXXX XXXX$$%o&;;;;;;;&$tt0$XXXX XXXX XXXX ",
"                 o66--;;;--6$099$               ",
" 22 22222222 222o&6&wwrrrww&&$$$222 22222222 22 ",
" #X 2######X 2#o&&-;;reeer---&o###X 2######X 2# ",
" #X 2######X 2#o&-;;eiiie8;--&o###X 2######X 2# ",
" XX XXXXXXXX XXo&-;88eee888;-oXXXXX XXXXXXXX XX ",
"p               o&;eiiiee%%oo                  p"
};
