/* XPM */
static char *result[] = {
/* columns rows colors chars-per-pixel */
"32 32 48 1 ",
"  c #A5C364",
". c #A5C263",
"X c #B6CD6B",
"o c #C1D570",
"O c #C0D470",
"+ c #B4CD6B",
"@ c #A4C263",
"# c #A5C363",
"$ c #ADC867",
"% c #C1D470",
"& c #BED36F",
"* c #A7C464",
"= c #B8CF6C",
"- c #B1CA69",
"; c #BED26F",
": c #BFD370",
"> c #BFD470",
", c #BFD36F",
"< c #B1CB69",
"1 c #AFC968",
"2 c #B4CC6A",
"3 c #BAD06D",
"4 c #ACC767",
"5 c #BDD26E",
"6 c #ABC666",
"7 c #B5CD6B",
"8 c #BDD26F",
"9 c #BCD26E",
"0 c #B7CE6C",
"q c #B2CB6A",
"w c #BCD16E",
"e c #BBD16E",
"r c #211F30",
"t c #A4CC42",
"y c #FBCDD6",
"u c #F89CC0",
"i c #72A11D",
"p c #EA71BD",
"a c #BA3FAF",
"s c #28860F",
"d c #B9D06D",
"f c #B4CC6B",
"g c #AEC867",
"h c #B9CF6D",
"j c #ABC766",
"k c #B2CB69",
"l c #C2D571",
"z c black",
/* pixels */
" .XoOo+@ #$%OOOO&*      .=%o-...",
"&;:OOO:;&&&OOOOOO&&&&&&&;>OO,,<1",
"OOOOOOOOOOOO>OO>OOOOOOOOOOOOOO,&",
"%Oo<2oOOOOO34O56:OOOOOOOOOOOOOo7",
"OOO8&OOOOOO:5O>9OOOOOOOO%10%OOO&",
"OOOOOOOOOOOOOOOOOOOOOOOOO9&OOOOO",
"OOOOOOOOOOOOOOOOOOOOOOOOOOOOOOOO",
"OOOOOOOOOOOOOOOOOOOO$9OOOOOOOOOO",
"OOOOO%Xq%OOOOOOOOOOO3,OOOO%qX%OO",
"OOOOOOweOOOOOOOOOOOOOOOOOOOewOOO",
"OOOOOOOrrrrrrrrrrrrrrrrrrOOOOOOO",
"OOOOOOOrtyuuuuuuuuuuuuytrOOOOOOO",
"OOOOOOOriuprpppppppprpuirOOOOOOO",
"OOOOOOOriuppuppppppuppuirOOOOOOO",
"OOOOOOOriuaprpuppuprpauirOOOOOOO",
"O%OOOOOrsiuppprpprpppuisrOOOOOOO",
"OX3OOOOOrsuaappppppaausrOOOOOOOO",
"O7dOOOOOrssuuaaaaaauussrOOOOOOOO",
"O%OOOOOOOrsssuuuuuusssrOOOOOOOOO",
"OOOOOOOOOOrssssssssssrOOOOOOOOOO",
"OOOOOOOOOOOrrssssssrrOOOOOOOOOOO",
"OOOOOOOOOOOOOrrrrrr%OOOOOOOOOOOO",
"OOOOeeOOOOOOOOOOOOO=,OOOOOOOOOOO",
"OOO%f+%OOOOOOOOOOO>g8OOOOOOOOOOO",
"OOOOOOOOO;3OOOOOOOO%OOOOOOOOOOOO",
"OOOOOOOO%h1OOOOOOOOOOOOOOOOOOOOO",
"OOOOOOOOOOOOOO>eOOOOOOOOOOOOOOOO",
"OOOOOOOOOOOOOO8j:OOOOOOOOOOO88O&",
"OOOOOOOOOOOOOOOOOOOOOOOOOOOok2l7",
"OOOOOOOOOOOOOOOOOOOOOOOOOOOOOOOO",
"OOOOOOOOOOOOOOOOOOOOOOOOOOOOOOOO",
"&&;:OOOOOO>&&&&&&OOOOOOOOOOOO,;,"
};
