/* XPM */
static char *result[] = {
/* columns rows colors chars-per-pixel */
"32 32 46 1 ",
"  c #C0D470",
". c #BED36F",
"X c #A7C464",
"o c #A5C364",
"O c #A6C364",
"+ c #BCD16E",
"@ c #C1D570",
"# c #B0CA69",
"$ c #A5C263",
"% c #A5C363",
"& c #ACC767",
"* c #C1D470",
"= c #A4C263",
"- c #BFD36F",
"; c #BED26F",
": c #BBD16E",
"> c #A8C465",
", c #BCD26E",
"< c #BFD470",
"1 c #BDD26F",
"2 c #ABC766",
"3 c #BAD06D",
"4 c #C1D571",
"5 c #AFC968",
"6 c #B7CE6C",
"7 c #AAC666",
"8 c #BDD26E",
"9 c #BFD370",
"0 c #B9D06D",
"q c #ADC867",
"w c #B5CD6B",
"e c #B2CB6A",
"r c #AEC867",
"t c #B9CF6D",
"y c #211F30",
"u c #A4CC42",
"i c #FBCDD6",
"p c #F89CC0",
"a c #72A11D",
"s c #EA71BD",
"d c #BA3FAF",
"f c #28860F",
"g c #B8CF6C",
"h c #B4CC6A",
"j c #ABC666",
"k c black",
/* pixels */
"   .XooO+    @#$ooooo%&* +Oo=ooo",
"    ....      -;.......   .:>,..",
" <       <                  1<  ",
"+2<      &3456*             .7. ",
"<,       89 1.        0q     ,  ",
"                      -+        ",
"                                ",
"                @we@            ",
"   .q.           ,:     +r      ",
"   <t<                  .t      ",
"    *                    *      ",
"     yyyyyyyyyyyyyyyyyyyyyy     ",
"     yuippppppppppppppppiuy     ",
"     yapsyspsssssssspsyspay     ",
"     yapdssysspsspssyssdpay     ",
"     yfapddsssyssysssddpafy     ",
"      yffppddddddddddppffy      ",
"       yfffppppppppppfffy       ",
"        yyffffffffffffyy        ",
"          yyffffffffyy          ",
"            yyyyyyyy            ",
"  *                             ",
" -g             ::              ",
" 1r9           *wh*             ",
"  *    3-                       ",
"       q+                       ",
"            +.                  ",
"           *56*          <+  +  ",
"                         ,2<.j. ",
"                                ",
"                                ",
".       .....;9            .. .."
};
