/* XPM */
static char *result[] = {
/* columns rows colors chars-per-pixel */
"32 32 26 1 ",
"  c #A5C263",
". c #B5CD6B",
"X c #C1D570",
"o c #B4CC6A",
"O c #A4C263",
"+ c #ADC867",
"@ c #C0D470",
"# c #BED26F",
"$ c #BFD370",
"% c #BED36F",
"& c #BFD36F",
"* c #B1CA69",
"= c #B4CD6B",
"- c #BDD26F",
"; c #B4CC6B",
": c #211F30",
"> c #BCD16E",
", c #BBD16E",
"< c #A4CC42",
"1 c #FBCDD6",
"2 c #F89CC0",
"3 c #72A11D",
"4 c #EA71BD",
"5 c #BA3FAF",
"6 c #28860F",
"7 c black",
/* pixels */
" .XXo O+X@@@@@@@@@@@@@@@@@@@@@@@",
"#$@@$%o+X@@@@@@@@@@@@@@@@@@@@@@@",
"@@@@@@&%@@@@@@@@@@@@@@@@@@@@@@@@",
"@@@@@@@@@@@@@@@@@@@@@@@@@@@@@@@@",
"X*=X@@@@@@@@@@@@@@@@@@@@@@@@@@@@",
"@-#@@@@@@@@@@@@@@@@@@@@@@@@@@@@@",
"@@@@@@@@@@@@@@@@@@@@@@@@@@@@@@@@",
"@@@@@@@@@@@@@@@@@@@@@@@@@@@@@@@@",
"@@X;oX@@::::::::::::::::@@@@@@@@",
"@@@>,@@@:<122222222221<:@@@@@@@@",
"@@@@@@@@:324:444444:423:@@@@@@@@",
"@@@@@@@@:32444444444423:@@@@@@@@",
"@@@@@@@@:32442444424423:@@@@@@@@",
"@@@@@@@@:3244:4444:4423:@@@@@@@@",
"@@@@@@@@:32544444444523:@@@@@@@@",
"@@@@@@@@:63244444444236:@@@@@@@@",
"@@@@@@@@@:625424424526:@@@@@@@@@",
"@@@@@@@@@:6254:44:4526:@@@@@@@@@",
"@@@@@@@@@:662544445266:@@@@@@@@@",
"@@@@@@@@@@:6625555266:@@@@@@@@@@",
"@@@@@@@@@@:6662222666:@@@@@@@@@@",
"@@@@@@@@@@@:66666666:@@@@@@@@@@@",
"@@@@@@@@@@@@::6666::@@@@@@@@@@@@",
"@@@@@@@@@@@@@@::::@@@@@@@@@@@@@@",
"@@@@@@@@@@@@@@@@@@@@@@@@@@@@@@@@",
"@@@@@@@@@@@@@@@@@@@@@@@@@@@@@@@@",
"@@@@@@@@@@@@@@@@@@@@@@@@@@@@@@@@",
"@@@@#-@@@@@@@@@@@@@@@@@@@@@@@@@@",
"@@@Xo*X@@@@@@@@@@@@@@@@@@@@@@@@@",
"@@@@@@@@@@@@@@@@@@@@@@@@@@@@@@@@",
"@@@@@@@@@@@@@@@@@@@@@@@@@@@@@@@@",
"@@@@@$#%@@@@@@@@@@@@@@@@@@@@@@@@"
};
