/* XPM */
static char *result[] = {
/* columns rows colors chars-per-pixel */
"32 32 49 1 ",
"  c #C0D470",
". c #C1D470",
"X c #B6CE6C",
"o c #A5C263",
"O c #A5C364",
"+ c #A5C363",
"@ c #ABC666",
"# c #BFD370",
"$ c #A8C565",
"% c #B6CD6B",
"& c #C1D570",
"* c #B3CC6A",
"= c #A4C263",
"- c #BED26F",
"; c #BED36F",
": c #BFD36F",
"> c #ADC867",
", c #BFD470",
"< c #B2CB69",
"1 c #BCD16E",
"2 c #ABC766",
"3 c #AAC666",
"4 c #B7CE6C",
"5 c #AEC968",
"6 c #BCD26E",
"7 c #B1CA69",
"8 c #B5CD6B",
"9 c #BDD26F",
"0 c #AEC867",
"q c #BBD16D",
"w c #B8CF6C",
"e c #B0CA69",
"r c #BAD06D",
"t c #B4CC6A",
"y c #BBD16E",
"u c #211F30",
"i c #A4CC42",
"p c #FBCDD6",
"a c #F89CC0",
"s c #72A11D",
"d c #EA71BD",
"f c #BA3FAF",
"g c #28860F",
"h c #B6CE6B",
"j c #B3CB6A",
"k c #AEC868",
"l c #C2D571",
"z c #AFC968",
"x c black",
/* pixels */
" .XoO+@     #$OOOOOOo%&&*o+=OOO@",
"  #-;;;      ;;;;;;;-#  :;*>:;;;",
"        ,  ,              :;    ",
"<&     12 ;3;             .45.  ",
"-      ,6  6        &78&   ;9   ",
"                     9;         ",
"                                ",
"                0q              ",
" .we.           r;    &tt&      ",
"  9r                   yy       ",
"                                ",
"     uuuuuuuuuuuuuuuuuuuuuu     ",
"     uipaaaaaaaaaaaaaaaapiu     ",
"     usadudaddddddddadudasu     ",
"     usafdduddaddadduddfasu     ",
"     ugsaffddduddudddffasgu    &",
"      uggaaffffffffffaaggu    6t",
"       ugggaaaaaaaaaagggu     6*",
"        uugggggggggggguu       &",
"          uugggggggguu          ",
"            uuuuuuuu            ",
"               .                ",
"1r             w;               ",
"hj.            51               ",
"     ;r        .                ",
"     rk                         ",
"           y                    ",
"          ;2;           99 ;6   ",
"                       &t<l4z.  ",
"                                ",
"                                ",
"       ;;;;;;            #-:,-;;"
};
