/* XPM */
static char *result[] = {
/* columns rows colors chars-per-pixel */
"32 32 46 1 ",
"  c #C1D470",
". c #ADC867",
"X c #A5C363",
"o c #A5C364",
"O c #A4C263",
"+ c #B4CC6A",
"@ c #C1D570",
"# c #C0D470",
"$ c #B8CF6C",
"% c #A7C464",
"& c #BED26F",
"* c #AAC666",
"= c #BED36F",
"- c #BFD370",
"; c #BFD470",
": c #ABC666",
"> c #B6CD6B",
", c #BFD36F",
"< c #B3CC6A",
"1 c #B2CB69",
"2 c #C2D571",
"3 c #B6CE6C",
"4 c #AFC968",
"5 c #AEC968",
"6 c #B7CE6C",
"7 c #BDD26F",
"8 c #BCD16E",
"9 c #B0CA68",
"0 c #BAD06D",
"q c #AEC867",
"w c #B9CF6D",
"e c #211F30",
"r c #A4CC42",
"t c #FBCDD6",
"y c #F89CC0",
"u c #72A11D",
"i c #EA71BD",
"p c #BA3FAF",
"a c #28860F",
"s c #B6CE6B",
"d c #BBD16E",
"f c #BCD26E",
"g c #B2CB6A",
"h c #B5CD6B",
"j c #ACC767",
"k c black",
/* pixels */
" .XoO+@### $Xoooooo%&##*oOXooO+@",
"#===&-#####;========###==:>==&-#",
"#########################=,#####",
"#####@<1234 ############# 56 #@<",
"######=&#=7########-:7####7=###=",
"####################8;##########",
"################################",
"##############8.################",
" 9$ ##########,0######q8########",
"#07###################w=########",
"######eeeeeeeeeeeeeeeeeeee######",
"######ertyyyyyyyyyyyyyytre######",
"######euyieiiiiiiiiiieiyue######",
"######euyiiiyiiiiiiyiiiyue######",
"######euypiieiyiiyieiipyue######",
"######eauyiiiieiieiiiiyuae### ##",
"#######eaypppiiiiiipppyae### 6w ",
"#######eaayyyppppppyyyaae### s$ ",
"########eaaaayyyyyyaaaae#####  #",
"#########eeaaaaaaaaaaee#########",
"###########eeaaaaaaee###########",
"#############eeeeee#############",
"&############=$#################",
"0############d4################ ",
"####df######## #################",
"###@gh #########################",
"#########=8#####################",
"######## 64 ###########8,#f=####",
"#######################j0@56 ###",
"################################",
"################################",
"#####,&=====############=&;,&=&,"
};
