/* XPM */
static char *result[] = {
/* columns rows colors chars-per-pixel */
"32 32 19 1 ",
"  c #C0D470",
". c #ABC766",
"X c #A5C363",
"o c #BED36F",
"O c #ADC867",
"+ c #B9D06D",
"@ c #BDD26E",
"# c #BFD36F",
"$ c #211F30",
"% c #A4CC42",
"& c #FBCDD6",
"* c #F89CC0",
"= c #72A11D",
"- c #EA71BD",
"; c #BA3FAF",
": c #28860F",
"> c #C1D470",
", c #BCD16E",
"< c black",
/* pixels */
"                              .X",
"                              oo",
"                                ",
"                              O+",
"                              @#",
"                                ",
"                                ",
"                                ",
"                                ",
"                                ",
"       $$$$$$$$$$$$$$$$$$       ",
"       $%&************&%$       ",
"       $=*-$--------$-*=$       ",
"       $=*--*------*--*=$       ",
"       $=*;-$-*--*-$-;*=$       ",
"       $:=*---$--$---*=:$       ",
"        $:*;;------;;*:$        ",
"        $::**;;;;;;**::$        ",
"         $:::******:::$         ",
"          $::::::::::$          ",
"           $$::::::$$        >  ",
"             $$$$$$          >  ",
"                             >  ",
"                             >  ",
"                             >  ",
"                             >  ",
"                             >  ",
"                             >,#",
"                             >O+",
"                             >  ",
"                             >  ",
"                               o"
};
