/* XPM */
static char *result[] = {
/* columns rows colors chars-per-pixel */
"32 32 47 1 ",
"  c #C0D470",
". c #BBD16E",
"X c #A6C364",
"o c #A5C364",
"O c #A4C263",
"+ c #BCD16E",
"@ c #C1D470",
"# c #ADC867",
"$ c #A5C363",
"% c #B4CC6A",
"& c #C1D570",
"* c #B9CF6D",
"= c #A6C464",
"- c #BED36F",
"; c #A8C465",
": c #BDD26E",
"> c #BED26F",
", c #BFD370",
"< c #BFD470",
"1 c #BDD26F",
"2 c #AAC666",
"3 c #ACC767",
"4 c #BAD06D",
"5 c #B3CC6A",
"6 c #B2CB69",
"7 c #C2D571",
"8 c #B7CE6C",
"9 c #AFC968",
"0 c #BCD26E",
"q c #AEC868",
"w c #211F30",
"e c #BFD36F",
"r c #B9D06D",
"t c #A4CC42",
"y c #FBCDD6",
"u c #F89CC0",
"i c #72A11D",
"p c #EA71BD",
"a c #BA3FAF",
"s c #28860F",
"d c #B2CB6A",
"f c #B8CF6C",
"g c #AEC968",
"h c #B5CD6B",
"j c #ACC766",
"k c #ABC666",
"l c black",
/* pixels */
" .XoOoooX+  @#$oO%&   @*$oooooo=",
"  -.;:---    --->,     <--------",
"    1<    <                     ",
"    -2-   34     &56789@        ",
"     0    :,      -> -1        ,",
"                                ",
"                                ",
"                          0#    ",
".q      wwwwwwwwwwwwwwww  e4    ",
"-r      wtyuuuuuuuuuuytw        ",
"        wiupwppppppwpuiw        ",
"        wiuppppppppppuiw        ",
"        wiuppuppppuppuiw        ",
"        wiuppwppppwppuiw        ",
"        wiuappppppppauiw        ",
"        wsiuppppppppuisw        ",
"        5wsuapuppupausw         ",
"        dwsuapwppwpausw         ",
"        &wssuappppaussw         ",
"          wssuaaaaussw          ",
"          wsssuuuusssw          ",
"           wssssssssw     @     ",
"           *wwssssww     -f     ",
"           94 wwww       +g     ",
"           @    .0        @     ",
"               &dh&             ",
"                     -+         ",
" ,+  +              @89@        ",
" +j -k-                         ",
"                                ",
"                                ",
"   -- ----       e>-----        "
};
