/* XPM */
static char *result[] = {
/* columns rows colors chars-per-pixel */
"32 32 46 1 ",
"  c #A5C364",
". c #AAC666",
"X c #C0D470",
"o c #BFD36F",
"O c #A8C465",
"+ c #BBD06D",
"@ c #C1D570",
"# c #B1CB69",
"$ c #A5C263",
"% c #A5C363",
"& c #ABC766",
"* c #BDD26F",
"= c #A6C364",
"- c #BED36F",
"; c #BED26F",
": c #BFD470",
"> c #ADC867",
", c #C1D470",
"< c #ABC666",
"1 c #BFD370",
"2 c #B9CF6D",
"3 c #C1D571",
"4 c #B0CA68",
"5 c #B5CD6B",
"6 c #BCD26E",
"7 c #BDD26E",
"8 c #ACC767",
"9 c #BCD16E",
"0 c #B6CE6B",
"q c #BBD16E",
"w c #211F30",
"e c #A4CC42",
"r c #FBCDD6",
"t c #F89CC0",
"y c #72A11D",
"u c #EA71BD",
"i c #BA3FAF",
"p c #28860F",
"a c #B3CC6A",
"s c #B3CB6A",
"d c #B8CF6C",
"f c #BAD06D",
"g c #B6CD6B",
"h c #B0CA69",
"j c #AEC868",
"k c black",
/* pixels */
"   .XXXoO   +XXXX@#$     %&XX*= ",
"----XXXX----XXXXXXo;-------XXX--",
"XXXXX:XXXXXXXXXXXXXXXXXXXXXXXXXX",
">,XX*<1XXXXXX>2345@XXXXXXXXXXXXX",
"*XXX:6XXXXXXX7oX*-XXXXXXXX+8XXXX",
"XXXXXXXXXXXXXXXXXXXXXXXXXXo9XXXX",
"XXXXXXXXXXXXXXXXXXXXXXXXXXXXXXXX",
"XXXXXXXXXXXXXXXXXXXX,0#,XXXXXXXX",
"XXXXXXXo>;XXXXXXXXXXX7qXXXXX7>:X",
"XXXXXXXX21XXXXXXXXXXXXXXXXXXo2XX",
"XXXXXXwwwwwwwwwwwwwwwwwwwwXXX,XX",
"XXXXXXwerttttttttttttttrewXXXXXX",
"XXXXXXwytuwuuuuuuuuuuwutywXXXXXX",
"XXXXXXwytuuutuuuuuutuuutywXXXXXX",
"XXXXXXwytiuuwutuutuwuuitywXXXXXX",
"XXX@XXwpytuuuuwuuwuuuutypwXXXXXX",
"XX*aXXXwptiiiuuuuuuiiitpwXXXXXXX",
"XX*sXXXwpptttiiiiiitttppwXXXXXXX",
"XXX@XXXXwppppttttttppppwXXXXXXXX",
"XXXXXXXXXwwppppppppppwwXXXXXXXXX",
"XXXXXXXXXXXwwppppppwwXXXXXXXXXXX",
"XXXXXX,XXXXXXwwwwwwXXXXXXXXXXXXX",
"XXXXX1d:XXXXXXXXXXXXqfXXXXXXXXXX",
"XXXXX->oXXXXXXXXXXX,ga,XXXXXXXXX",
"XXXXXX,XXXXf-XXXXXXXXXXXXXXXXXXX",
"XXXXXXXXXXX>qXXXXXXXXXXXXXXXXXXX",
"XXXXXXXXXXXXXXXX6;XXXXXXXXXXXXXX",
"6XXXXXXXXXXXXXX,hg,XXXXXXXXXX:9X",
"jXXXXXXXXXXXXXXXXXXXXXXXXXXXX*<o",
"XXXXXXXXXXXXXXXXXXXXXXXXXXXXXXXX",
"XXXXXXXXXXXXXXXXXXXXXXXXXXXXXXXX",
":----XXXXXXX-----;1XXXXXXXXXXXX-"
};
