/* XPM */
static char *result[] = {
/* columns rows colors chars-per-pixel */
"32 32 46 1 ",
"  c #A5C364",
". c #A4C263",
"X c #A5C363",
"o c #B4CD6B",
"O c #C1D570",
"+ c #C0D470",
"@ c #B6CD6B",
"# c #A5C263",
"$ c #ACC766",
"% c #BFD36F",
"& c #A8C465",
"* c #B6CE6C",
"= c #C1D470",
"- c #BED36F",
"; c #AAC666",
": c #B7CE6C",
"> c #BED26F",
", c #BFD370",
"< c #BFD470",
"1 c #AEC867",
"2 c #B8CF6C",
"3 c #B2CB6A",
"4 c #BBD16E",
"5 c #ABC766",
"6 c #BDD26F",
"7 c #BCD26E",
"8 c #B0CA69",
"9 c #BDD26E",
"0 c #ADC867",
"q c #B1CA69",
"w c #BAD06D",
"e c #B3CC6A",
"r c #211F30",
"t c #A4CC42",
"y c #FBCDD6",
"u c #F89CC0",
"i c #72A11D",
"p c #EA71BD",
"a c #BA3FAF",
"s c #28860F",
"d c #B9D06D",
"f c #B9CF6D",
"g c #B5CD6B",
"h c #AEC868",
"j c #AEC968",
"k c black",
/* pixels */
" .X  .oO+O@# X$+++++%&      #*=O",
"-;:-->,+++,>---++++++------->,++",
"+-%+++++++++++++<++<++++++++++++",
"+=12=+O33O+++++45+>;%+++++++++++",
"++6%+++--++++++,7++7++++++++O8@=",
"+++++++++++++++++++++++++++++9-+",
"++++++++++++++++++++++++++++++++",
"++++++++++++++++++++++++04++++++",
"+++++++++=:q=+++++++++++w-++++Oe",
"++++++++++9w+++++++++++++++++++4",
"+++++++rrrrrrrrrrrrrrrrrr+++++++",
"+++++++rtyuuuuuuuuuuuuytr+++++++",
"+++++++riuprpppppppprpuir+++++++",
"+++++++riuppuppppppuppuir+++++++",
"+++++++riuaprpuppuprpauir+++++++",
"+++++=+rsiuppprpprpppuisr+++++++",
"++++=*d=rsuaappppppaausr++++++++",
"++++=@f=rssuuaaaaaauussr++++++++",
"+++++=+++rsssuuuuuusssr+++++++++",
"++++++++++rssssssssssr++++++++++",
"+++++++++++rrssssssrr+++++++++++",
"+++++++++++++rrrrrr++++=++++++++",
"++++++++4w+++++++++++++2-+++++++",
"+++++++=ge=++++++++++++h7+++++++",
"+++++++++++++-w++++++++=++++++++",
"+++++++++++++wj+++++++++++++++++",
"++++++++++++++++++<4++++++++++++",
",+7-++++++++++++++>5%+++++++++++",
"4Oh2=++++++++++++++++++++++++++O",
"++++++++++++++++++++++++++++++++",
"++++++++++++++++++++++++++++++++",
"-><--->%++++++<------+++++++++++"
};
