/* XPM */
static char *result[] = {
/* columns rows colors chars-per-pixel */
"32 32 49 1 ",
"  c #A5C364",
". c #A4C263",
"X c #B2CB6A",
"o c #C1D570",
"O c #C0D470",
"+ c #C1D470",
"@ c #B8CF6C",
"# c #A5C263",
"$ c #AAC666",
"% c #BFD470",
"& c #A9C565",
"* c #B4CD6B",
"= c #B5CD6B",
"- c #A5C363",
"; c #BED36F",
": c #BED26F",
"> c #BFD36F",
", c #BFD370",
"< c #ACC767",
"1 c #B1CA69",
"2 c #BDD26E",
"3 c #ABC666",
"4 c #BDD26F",
"5 c #BCD26E",
"6 c #B2CB69",
"7 c #B4CC6A",
"8 c #AEC968",
"9 c #BAD06D",
"0 c #B9CF6D",
"q c #B0C968",
"w c #B3CC6A",
"e c #BCD16E",
"r c #BBD16E",
"t c #211F30",
"y c #A4CC42",
"u c #FBCDD6",
"i c #F89CC0",
"p c #72A11D",
"a c #EA71BD",
"s c #BA3FAF",
"d c #28860F",
"f c #B7CE6C",
"g c #B8CF6D",
"h c #AFC968",
"j c #ADC867",
"k c #ABC766",
"l c #B0CA69",
"z c #C1D571",
"x c black",
/* pixels */
" .XoO+@#  $OOOOO%&      .*oo=#-.",
";:>OOO%:;;;OOOOOO;;;;;;;:,OO,;=<",
"OOOOOOOOOOOO%OO%OOOOOOOOOOOOOO,;",
"+Oo*1oOOOOO23,>$4OOOOOOOOOOOOO+@",
"OOO;4OOOOOO%5OO5OOOOOOOOo67oOOO>",
"OOOOOOOOOOOOOOOOOOOOOOOOO44OOOOO",
"OOOOOOOOOOOOOOOOOOOOOOOOOOOOOOOO",
"OOOOOOOOOOOOOOOOOOOO89OOOOOOOOOO",
"OOOOO+0qOOOOOOOOOOOO9;OOOO+=woOO",
"OOOOOO49OOOOOOOOOOOOOOOOOOOerOOO",
"OOOOOOttttttttttttttttttttOOOOOO",
"OOOOOOtyuiiiiiiiiiiiiiiuytOOOOOO",
"OOOOOOtpiataaaaaaaaaataiptOOOOOO",
"OOOOOOtpiaaaiaaaaaaiaaaiptOOOOOO",
"OOOOOOtpisaataiaaiataasiptOOOOOO",
"O++OOOtdpiaaaataataaaaipdtOOOOOO",
"+@@+OOOtdisssaaaaaasssidtOOOOOOO",
"+ff+OOOtddiiissssssiiiddtOOOOOOO",
"O++OOOOOtddddiiiiiiddddtOOOOOOOO",
"OOOOOOOOOttddddddddddttOOOOOOOOO",
"OOOOOOOOOOOttddddddttOOOOOOOOOOO",
"OOOOOOOOOOOOOtttttt+OOOOOOOOOOOO",
"OOOOe9OOOOOOOOOOOOOg;OOOOOOOOOOO",
"OOO+f6+OOOOOOOOOOOOhrOOOOOOOOOOO",
"OOOOOOOOO;9OOOOOOOO+OOOOOOOOOOOO",
"OOOOOOOOOrjOOOOOOOOOOOOOOOOOOOOO",
"OOOOOOOOOOOOOOOr%OOOOOOOOOOOOOOO",
"OOOOOOOOOOOOOO>k:OOOOOOOOOOO;4O;",
"+OOOOOOOOOOOOOOOOOOOOOOOOOOo=lz@",
"OOOOOOOOOOOOOOOOOOOOOOOOOOOOOOOO",
"OOOOOOOOOOOOOOOOOOOOOOOOOOOOOOOO",
":;:>OOOOOOO;;;;;;OOOOOOOOOOOO,:;"
};
