/* XPM */
static char *result[] = {
/* columns rows colors chars-per-pixel */
"32 32 40 1 ",
"  c #A5C364",
". c #A5C363",
"X c #ACC767",
"o c #C1D470",
"O c #C0D470",
"+ c #BDD26E",
"@ c #A6C364",
"# c #BDD26F",
"$ c #C1D570",
"% c #AEC868",
"& c #A5C263",
"* c #AEC968",
"= c #BAD06D",
"- c #BFD36F",
"; c #BED36F",
": c #BED26F",
"> c #BFD470",
", c #B0CA69",
"< c #ABC766",
"1 c #BCD16E",
"2 c #ADC867",
"3 c #B9CF6D",
"4 c #BFD370",
"5 c #BCD26E",
"6 c #B8CF6C",
"7 c #B3CC6A",
"8 c #B4CC6A",
"9 c #B9D06D",
"0 c #211F30",
"q c #A4CC42",
"w c #FBCDD6",
"e c #F89CC0",
"r c #72A11D",
"t c #EA71BD",
"y c #BA3FAF",
"u c #28860F",
"i c #BBD16E",
"p c #B5CD6B",
"a c #B6CD6B",
"s c black",
/* pixels */
"  .XoOO+@  @#OOOO$%&     &*$O=  ",
"-;;;OOOO;;;;OOOOOO;:;;;;;:;OOO;=",
"OOOOO>OOOOOOO>OOOOOOOOOOOOOOOOOO",
",$OO=XOOOOOOO<1o23oOOOOOOOOOOOOO",
"#OOO4+OOOOOOO5>O+-OOOOOOOo6*oOOO",
"OOOOOOOOOOOOOOOOOOOOOOOOOO;5OOOO",
"OOOOOOOOOOOOOOOOOOOOOOOOOOOOOOOO",
"OOOOOOOOOOOOOOOOOOOO$78$OOOOOOOO",
"OOOOOOO#24OOOOOOOOOOO11OOOOO=*OO",
"OOOOOOO43OOOOOOOOOOOOOOOOOOO;9OO",
"OOOOOOO000000000000000000OOOOOOO",
"OOOOOOO0qweeeeeeeeeeeewq0OOOOOOO",
"OOOOOOO0ret0tttttttt0ter0OOOOOOO",
"OOOOOOO0rettettttttetter0OOOOOOO",
"OOOOOOO0reyt0tettet0tyer0OOOOOOO",
"OOOoOOO0urettt0tt0ttteru0OOOOOOO",
"OOipOOOO0ueyyttttttyyeu0OOOOOOOO",
"OOi8OOOO0uueeyyyyyyeeuu0OOOOOOOO",
"OOOoOOOOO0uuueeeeeeuuu0OOOOOOOOO",
"OOOOOOOOOO0uuuuuuuuuu0OOOOOOOOOO",
"OOOOOOOOOOO00uuuuuu00OOOOOOOOOOO",
"OOOOOOoOOOOOO000000OOOOOOOOOOOOO",
"OOOOO;6OOOOOOOOOOOOO=1OOOOOOOOOO",
"OOOOO1*OOOOOOOOOOOOo7aoOOOOOOOOO",
"OOOOOOoOOOO94OOOOOOOOOOOOOOOOOOO",
"OOOOOOOOOO-X#OOOOOOOOOOOOOOOOOOO",
"OOOOOOOOOOOOOOOO1;OOOOOOOOOOOOOO",
"#OOOOOOOOOOOOOOO%3oOOOOOOOOOO-1O",
",$OOOOOOOOOOOOOOOOOOOOOOOOOOOiXO",
"OOOOOOOOOOOOOOOOOOOOOOOOOOOOOOOO",
"OOOOOOOOOOOOOOOOOOOOOOOOOOOOOOOO",
"4:;;;OOOOOOO;;;;;:>OOOOOOOOOOOO;"
};
