/* XPM */
static char *result[] = {
/* columns rows colors chars-per-pixel */
"32 32 49 1 ",
"  c #A5C364",
". c #BBD16E",
"X c #C0D470",
"o c #C1D570",
"O c #AEC968",
"+ c #A5C263",
"@ c #A4C263",
"# c #B3CB6A",
"$ c #C1D470",
"% c #B9D06D",
"& c #A5C363",
"* c #A6C364",
"= c #BDD26E",
"- c #ABC766",
"; c #BED36F",
": c #BED26F",
"> c #BFD36F",
", c #BFD470",
"< c #ACC767",
"1 c #B5CD6B",
"2 c #BAD06D",
"3 c #B4CC6B",
"4 c #B1CA69",
"5 c #C2D571",
"6 c #B8CF6C",
"7 c #AEC868",
"8 c #AFC968",
"9 c #B6CE6B",
"0 c #BDD26F",
"q c #BCD26E",
"w c #BCD16E",
"e c #BFD370",
"r c #B7CE6C",
"t c #211F30",
"y c #A4CC42",
"u c #FBCDD6",
"i c #F89CC0",
"p c #72A11D",
"a c #EA71BD",
"s c #BA3FAF",
"d c #28860F",
"f c #B3CC6A",
"g c #B2CB6A",
"h c #B9CF6D",
"j c #B0CA68",
"k c #B4CC6A",
"l c #ADC867",
"z c #C1D571",
"x c black",
/* pixels */
" .XXoO+ @#oXXX$%&      *=XX-&@& ",
";XXXX;:;:>XXXXX,;;;;;;;;XXX;;<1;",
"XX,XXXXXXXXXXXXXXXXXXXXXXXXXX;>X",
"XX<2XXXXXo34567$XXXXXXXXXXXXXo89",
"XX=>XXXXXX;0X>0XXXXXXXX,-qXXXX0;",
"XXXXXXXXXXXXXXXXXXXXXXXXweXXXXXX",
"XXXXXXXXXXXXXXXXXXXXXXXXXXXXXXXX",
"XXXXXXXXXXXXXXXXXX=<,XXXXXXXXXXX",
"XXXX$4r$XXXXXXXXXX>2XXXXXX7.XXXX",
"XXXXX2=XXXXXXXXXXXXXXXXXXX%;XXXX",
"XXXXXXXXXXXXXXXXXXXXXXXXXXXXXXXX",
"XXXXXttttttttttttttttttttttXXXXX",
"XXXXXtyuiiiiiiiiiiiiiiiiuytXXXXX",
"XXXXXtpiataiaaaaaaaaiataiptXXXXX",
"XXXXXtpisaataaiaaiaataasiptXXXXX",
"oXXXXtdpissaaataataaassipdtXXXXX",
"f0XXXXtddiissssssssssiiddtXXXXXX",
"g0XXXXXtdddiiiiiiiiiidddtXXXXXXX",
"oXXXXXXXttddddddddddddttXXXXXXXX",
"XXXXXXXXXXttddddddddttXXXXXXXXXX",
"XXXXXXXXXXXXttttttttXXXXXXXXXXXX",
"XXX$XXXXXXXXXXXXXX$XXXXXXXXXXXXX",
"XXXh0XXXXXXXXXXXX;6XXXXXXXXXXXXX",
"XXXj2XXXXXXXXXXXXq7XXXXXXXXXXXXX",
"XXX$XXXXwwXXXXXXXX$XXXXXXXXXXXXX",
"XXXXXXXofkoXXXXXXXXXXXXXXXXXXXXX",
"XXXXXXXXXXXXX;wXXXXXXXXXXXXXXXXX",
"XXXXXXXXXXXX$68$XXXXXXXXXXXw>X=;",
"XXXXXXXXXXXXXXXXXXXXXXXXXXXl%z89",
"XXXXXXXXXXXXXXXXXXXXXXXXXXXXXXXX",
"XXXXXXXXXXXXXXXXXXXXXXXXXXXXXXXX",
";;XXXXXXX>:;;;;;XXXXXXXXXXXX;:,>"
};
