/* XPM */
static char *result[] = {
/* columns rows colors chars-per-pixel */
"32 32 49 1 ",
"  c #A4C263",
". c #A5C364",
"X c #A6C364",
"o c #BDD26F",
"O c #C0D470",
"+ c #C1D470",
"@ c #ACC767",
"# c #A5C363",
"$ c #B5CD6B",
"% c #C1D570",
"& c #B8CF6C",
"* c #A5C263",
"= c #A7C464",
"- c #BED36F",
"; c #AAC666",
": c #A8C565",
"> c #BED26F",
", c #BFD370",
"< c #BFD470",
"1 c #ABC666",
"2 c #BFD36F",
"3 c #ABC766",
"4 c #BBD16E",
"5 c #B2CB6A",
"6 c #B3CB6A",
"7 c #C2D571",
"8 c #B0C968",
"9 c #BCD26E",
"0 c #BCD16E",
"q c #ADC867",
"w c #AFC968",
"e c #B9D06D",
"r c #BAD06D",
"t c #B9CF6D",
"y c #211F30",
"u c #A4CC42",
"i c #FBCDD6",
"p c #F89CC0",
"a c #72A11D",
"s c #EA71BD",
"d c #BA3FAF",
"f c #28860F",
"g c #B3CC6A",
"h c #B2CB69",
"j c #BDD26E",
"k c #B1CB69",
"l c #B6CD6B",
"z c #B0CA69",
"x c black",
/* pixels */
" ...XoOO+@#. $%OOO+&*......=-OO;",
":o---OOOO--->,OOOOO<>-------OOO-",
"o<OOOO<OOOOOOOOOOOOOOOOOOOOOOOOO",
"o12OOO34OOOOO%567$8%OOOOOOOOOOOO",
"O9OOOO9,OOOOOO>-O-oOOOOOOOO21>OO",
"OOOOOOOOOOOOOOOOOOOOOOOOOOOO0OOO",
"OOOOOOOOOOOOOOOOOOOOOOOOOOOOOOOO",
"OOOOOOOOOOOOOOOOOOOOOO4qOOOOOOOO",
"OOOOOOOOOwe+OOOOOOOOOO-rOOOOOOq9",
"OOOOOOOOOroOOOOOOOOOOOOOOOOOOOt2",
"OOOOOOOyyyyyyyyyyyyyyyyyyOOOOO+O",
"OOOOOOOyuippppppppppppiuyOOOOOOO",
"OOOOOOOyapsyssssssssyspayOOOOOOO",
"OOOOOOOyapsspsssssspsspayOOOOOOO",
"OOOOOOOyapdsyspsspsysdpayOOOOOOO",
"OOOO%OOyfapsssyssyssspafyOOOOOOO",
"OOO<g-OOyfpddssssssddpfyOOOOOOOO",
"OOO<h-OOyffppddddddppffyOOOOOOOO",
"OOOO%OOOOyfffppppppfffyOOOOOOOOO",
"OOOOOOOOOOyffffffffffyOOOOOOOOOO",
"OOOOOOOOOOOyyffffffyyOOOOOOOOOOO",
"OOOOOOO+OOOOOyyyyyyOOO+OOOOOOOOO",
"OOOOOOO&-OOOOOOOOOOOO>tOOOOOOOOO",
"OOOOOOOw4OOOOOOOOOOOO4wOOOOOOOOO",
"OOOOOOO+OOOO4jOOOOOOOO+OOOOOOOOO",
"OOOOOOOOOOO+kl+OOOOOOOOOOOOOOOOO",
"OOOOOOOOOOOOOOOOO>9OOOOOOOOOOOOO",
"<0OOOOOOOOOOOOOO+lz+OOOOOOOOOOO0",
"o12OOOOOOOOOOOOOOOOOOOOOOOOOOOO@",
"OOOOOOOOOOOOOOOOOOOOOOOOOOOOOOOO",
"OOOOOOOOOOOOOOOOOOOOOOOOOOOOOOOO",
"-O----OOOOOOO2>-----OOOOOOOOOOOO"
};
