/* XPM */
static char *result[] = {
/* columns rows colors chars-per-pixel */
"32 32 45 1 ",
"  c #BDD26F",
". c #C0D470",
"X c #ABC666",
"o c #A5C364",
"O c #A4C263",
"+ c #A5C363",
"@ c #B3CC6A",
"# c #C1D570",
"$ c #C1D470",
"% c #B7CE6C",
"& c #A5C263",
"* c #AAC666",
"= c #BFD370",
"- c #A8C565",
"; c #BED36F",
": c #B5CD6B",
"> c #BED26F",
", c #BFD36F",
"< c #BFD470",
"1 c #AFC968",
"2 c #B4CC6A",
"3 c #B1CB69",
"4 c #BCD16E",
"5 c #ABC766",
"6 c #BCD26E",
"7 c #AEC868",
"8 c #BAD06D",
"9 c #AEC867",
"0 c #211F30",
"q c #B9D06D",
"w c #A4CC42",
"e c #FBCDD6",
"r c #F89CC0",
"t c #72A11D",
"y c #EA71BD",
"u c #BA3FAF",
"i c #28860F",
"p c #B8CF6C",
"a c #B6CE6B",
"s c #B2CB6A",
"d c #AEC968",
"f c #BBD16E",
"g c #ACC767",
"h c #C1D571",
"j c black",
/* pixels */
" ..XoO+ooO@#.$%&oo*.....=-oooooo",
"...;;X:;;>,...=>;;;......;;;;;;;",
".....;,.............<..<........",
".....$1%$.#23#.....4X<;*;.......",
"5 .... ;...; ......<6..6........",
"4<..............................",
"................................",
"............................78..",
"..94....0000000000000000....8;..",
"..q;....0werrrrrrrrrrew0........",
"..$.....0try0yyyyyy0yrt0........",
"........0tryyyyyyyyyyrt0........",
"........0tryyryyyyryyrt0........",
"........0tryy0yyyy0yyrt0........",
"........0truyyyyyyyyurt0........",
"........0itryyyyyyyyrti0........",
"........$0iruyryyryuri0.........",
"........$0iruy0yy0yuri0.........",
".........0iiruyyyyurii0.........",
"..........0iiruuuurii0..........",
"..........0iiirrrriii0..........",
"...........0iiiiiiii0......$....",
"............00iiii00.......p;...",
"...........$as0000.........df...",
".................;8........$....",
".................f9.............",
".......................f........",
"...4,.6;..............;5;.......",
"...g8h1%$.......................",
"................................",
"................................",
"....;><,>;>,.......;;;;;;......."
};
