/* XPM */
static char *result[] = {
/* columns rows colors chars-per-pixel */
"32 32 46 1 ",
"  c #A6C464",
". c #A5C364",
"X c #A6C364",
"o c #BCD26E",
"O c #C0D470",
"+ c #C1D570",
"@ c #AFC968",
"# c #A5C263",
"$ c #A5C363",
"% c #ADC867",
"& c #C1D470",
"* c #BBD16E",
"= c #A4C263",
"- c #BED36F",
"; c #BFD36F",
": c #BED26F",
"> c #BBD16D",
", c #A8C565",
"< c #BDD26E",
"1 c #BFD470",
"2 c #BDD26F",
"3 c #ACC767",
"4 c #AEC867",
"5 c #B8CF6C",
"6 c #AAC666",
"7 c #BFD370",
"8 c #B4CC6A",
"9 c #B3CC6A",
"0 c #BCD16E",
"q c #AEC868",
"w c #B9CF6D",
"e c #211F30",
"r c #A4CC42",
"t c #FBCDD6",
"y c #F89CC0",
"u c #72A11D",
"i c #EA71BD",
"p c #BA3FAF",
"a c #28860F",
"s c #B2CB6A",
"d c #BBD06D",
"f c #B5CD6B",
"g c #BAD06D",
"h c #AEC968",
"j c #ABC666",
"k c black",
/* pixels */
" ..XoOOOO+@#.....$%&O*..=...XoOO",
"----OOOOOO;:-------OOO->,<---OOO",
"OOOOO1OOOOOOOOOOOOOOOOOO21OOOO1O",
"OOOOO3*+45&OOOOOOOOOOOOO-6-OOO3*",
"OOOOO<7O2;OOOOOOO&54OOOOOoOOOO<7",
"OOOOOOOOOOOOOOOOOO-oOOOOOOOOOOOO",
"OOOOOOOOOOOOOOOOOOOOOOOOOOOOOOOO",
"OOOOOOOOOOOO+89+OOOOOOOOOOOOOOOO",
"%;OOOOOOOOOOO00OOOOO*qOOOOOOOOOO",
"wOOOOOOeeeeeeeeeeeeeeeeeeOOOOOOO",
"&OOOOOOertyyyyyyyyyyyytreOOOOOOO",
"OOOOOOOeuyieiiiiiiiieiyueOOOOOOO",
"OOOOOOOeuyiiiiiiiiiiiiyueOOOOOOO",
"OOOOOOOeuyiiyiiiiiiyiiyueOOOOOOO",
"OOOOOOOeuypieiiiiiieipyueOOOOOOO",
"OOOOOOOeauyiiiyiiyiiiyuaeOOO+OOO",
"OOOOOOOOeaypiieiieiipyaeOOOO9-OO",
"OOOOOOOOeaaypiiiiiipyaaeOOOOs:OO",
"OOOOOOOOOeaayppppppyaaeOOOOO+OOO",
"OOOOOOOOOeaaayyyyyyaaaeOOOOOOOOO",
"OOOOOOOOOOeaaaaaaaaaaeOOOOOOOOOO",
"OOOOOOOOOOOeeaaaaaaeeOOOOOOOOOO&",
"OOOOOOOOOOOOdeeeeeeOOOOOOOOOOOOw",
"OOOOOOOOOOO&8f&OOOOOOOOOOOOOOOO@",
"OOOg7OOOOOOOOOOOOOOOOOOOOOOOOOO&",
"OO732OOOOOOOOOOOOOOOOOOOOOOOOOOO",
"OOOOOOOO0-OOOOOOOOOOOOOOOOOOOOOO",
"OOOOOOO&h5&OOOOOOOOOO70OO0OOOOOO",
"OOOOOOOOOOOOOOOOOOOOO*3O-j;OOOOO",
"OOOOOOOOOOOOOOOOOOOOOOOOOOOOOOOO",
"OOOOOOOOOOOOOOOOOOOOOOOOOOOOOOOO",
"OOOO-----:7OOOOOOOOOOOO--O----OO"
};
