/* XPM */
static char *result[] = {
/* columns rows colors chars-per-pixel */
"32 32 34 1 ",
"  c #C0D470",
". c #C1D570",
"X c #B6CD6B",
"o c #A5C263",
"O c #A5C364",
"+ c #A5C363",
"@ c #ACC767",
"# c #BDD26F",
"$ c #BFD370",
"% c #BED26F",
"& c #BED36F",
"* c #BFD470",
"= c #C1D470",
"- c #AFC968",
"; c #BBD16E",
": c #ACC766",
"> c #BCD26E",
", c #211F30",
"< c #A4CC42",
"1 c #FBCDD6",
"2 c #F89CC0",
"3 c #72A11D",
"4 c #EA71BD",
"5 c #BA3FAF",
"6 c #28860F",
"7 c #BCD16E",
"8 c #B4CC6B",
"9 c #B3CC6A",
"0 c #B8CF6C",
"q c #AEC868",
"w c #BFD36F",
"e c #BDD26E",
"r c #B0CA68",
"t c black",
/* pixels */
"                      .XoO+@   #",
"                       $%&&&    ",
"                             *  ",
"                      =X-=  ;:  ",
"                       &#   $>  ",
"                                ",
"                                ",
"                                ",
"                               &",
"       ,,,,,,,,,,,,,,,,,,      $",
"       ,<12222222222221<,       ",
"       ,324,44444444,423,       ",
"       ,3244444444444423,       ",
"       ,3244244444424423,       ",
"       ,3254,444444,4523,       ",
"       ,6324442442444236,  .    ",
"        ,62544,44,44526,  78    ",
"        ,66254444445266,  ;9    ",
"         ,662555555266,    .    ",
"         ,666222222666,         ",
"          ,6666666666, =        ",
"           ,,666666,,  =      = ",
"             ,,,,,,    =     &0 ",
"                       =     >q ",
"                       =      = ",
"                       =        ",
"                       =        ",
"                      =we       ",
"                      =Xr=      ",
"                       =        ",
"                       =        ",
"                        $%&&&   "
};
