/* XPM */
static char *result[] = {
/* columns rows colors chars-per-pixel */
"32 32 46 1 ",
"  c #B2CB6A",
". c #A5C263",
"X c #A5C363",
"o c #A4C263",
"O c #A5C364",
"+ c #ABC766",
"@ c #C0D470",
"# c #BED26F",
"$ c #A7C464",
"% c #A6C364",
"& c #BCD26E",
"* c #C1D570",
"= c #AFC968",
"- c #ADC867",
"; c #C1D470",
": c #BFD36F",
"> c #BED36F",
", c #B3CB6A",
"< c #BFD470",
"1 c #B6CE6B",
"2 c #BBD16E",
"3 c #ACC767",
"4 c #BBD06D",
"5 c #AEC868",
"6 c #B7CE6C",
"7 c #BDD26F",
"8 c #BFD370",
"9 c #BDD26E",
"0 c #B9CF6D",
"q c #B4CC6A",
"w c #B3CC6A",
"e c #B5CD6B",
"r c #BCD16E",
"t c #211F30",
"y c #A4CC42",
"u c #FBCDD6",
"i c #F89CC0",
"p c #72A11D",
"a c #EA71BD",
"s c #BA3FAF",
"d c #28860F",
"f c #B8CF6C",
"g c #BAD06D",
"h c #ADC767",
"j c #C2D571",
"k c black",
/* pixels */
" .XoOOX+@@@#$OO%&@@@@*=.OOOOOX-;",
":>,-:>>>@@@@>>>>@@@@@@:#>>>>>>>@",
"@@:>@@@@@<@@@@@@@<@@@@@@@@@@@@@@",
"@@*1=;@@2+@@@@@@@34*56;@@@@@@@@@",
"@@@>7@@@8&@@@@@@@98@7:@@@@@@@;0-",
"@@@@@@@@@@@@@@@@@@@@@@@@@@@@@@:&",
"@@@@@@@@@@@@@@@@@@@@@@@@@@@@@@@@",
"@@@@@@@@@@@@@@@@@@@@@@@@*qw*@@@@",
"e;@@@@@@@@@>-:@@@@@@@@@@@rr@@@@@",
"r@@@@@@tttttttttttttttttt@@@@@@@",
"@@@@@@@tyuiiiiiiiiiiiiuyt@@@@@@@",
"@@@@@@@tpiataaaaaaaataipt@@@@@@@",
"@@@@@@@tpiaaaaaaaaaaaaipt@@@@@@@",
"@@@@@@@tpiaaiaaaaaaiaaipt@@@@@@@",
"@@@@@@@tpisataaaaaatasipt@@@@@@@",
"@@@@@@@tdpiaaaiaaiaaaipdt@@@@@@@",
"@@@@@@rqtdisaataataasidt@@@@@@@@",
"@@@@@@rwtddisaaaaaasiddt@@@@@@@@",
"@@@@@@@*@tddissssssiddt@@@@@@@@@",
"@@@@@@@@@tdddiiiiiidddt@@@@@@@@@",
"@@@@@@@@@@tddddddddddt@@@@@@@@@@",
"@@@@@@@@@@;ttddddddtt@@@@@@@@@@@",
"@@@@@@@@@:f@@tttttt@@@@@22@@@@@@",
"@@@@@@@@@95<@@@@@@@@@@@;qe;@@@@@",
"@@@@@@@@@@;@@@@g:@@@@@@@@@@@@@@@",
"@@@@@@@@@@@@@@<h9@@@@@@@@@@@@@@@",
"@@@@@@@@@@@@@@@@@@@@r>@@@@@@@@@@",
"77@>9@@@@@@@@@@@@@@;=f;@@@@@@@@@",
"w j1=;@@@@@@@@@@@@@@@@@@@@@@@@@@",
"@@@@@@@@@@@@@@@@@@@@@@@@@@@@@@@@",
"@@@@@@@@@@@@@@@@@@@@@@@@@@@@@@@@",
"@8#:<#>>>@@@@@@@>>>>>#8@@@@@@@@@"
};
