/* XPM */
static char *result[] = {
/* columns rows colors chars-per-pixel */
"32 32 37 1 ",
"  c #C0D470",
". c #A4C263",
"X c #534721",
"o c #987B31",
"O c #FFD600",
"+ c #CCAD47",
"@ c #E6D86C",
"# c #C79D00",
"$ c #E3B700",
"% c #FFFC00",
"& c #F7F2A6",
"* c #C70000",
"= c #7A6843",
"- c #EEDAB3",
"; c #3B6D5D",
": c #FDF0C5",
"> c #F3EFEF",
", c #343F2F",
"< c #EFEFEF",
"1 c #A0A69E",
"2 c white",
"3 c #CA9E73",
"4 c #DDBD9C",
"5 c #136F39",
"6 c #12A855",
"7 c #C1D470",
"8 c #FFACD4",
"9 c #D14F35",
"0 c #853E10",
"q c #5C2E06",
"w c #663450",
"e c #FF5DB3",
"r c #FF7774",
"t c #D6DAD9",
"y c #747676",
"u c #B4B8B7",
"i c black",
/* pixels */
"                             ...",
"                                ",
"                                ",
"                             .  ",
"                                ",
"          X  oooooooo           ",
"         XOXoX+@@@@++oo         ",
"        X#$OX%@@@@@&@@+o        ",
"        X#*$$O%@@@@@&@@+o       ",
"        o+@&&$O@@@@@&&@@+o      ",
"        o@@@&&&O&&&&&@@@@o      ",
"       o+@@@@&&&&&&&@@@@@+o     ",
"       o+@@@@@@@@@@@@@@@@+o     ",
"       o+@@@@@@@@@@@@@@@@@o     ",
"       o+@+@+@+@@@+@@@@@@@o     ",
"        o=--;;;-@@==@@@@@@o     ",
"         =-:>,<;@@-:=@@@@@o     ",
"         =-:1,2;&@3:=@@@@@o     ",
"         =4:552:&@3-=@@@@@+o    ",
"         =3:66::@@4=+@@@@@@o7   ",
"          =4::::@@43+@@@@@@o7   ",
"           =34-@@433+@@@@@@o7   ",
"            ===@@===+@@@+@+o7   ",
"            =48@@90qo+@@o@+o7   ",
"            we8@+rr9q+@+o++o7   ",
"            q9r+orr9qo+oo+o 7   ",
"            w99ot290qeo  o  7   ",
"           we8=-::tye00q    7.  ",
"          yutu=4-4=r9900q   7   ",
"         yu22t9===9rrr90q   7   ",
"         yyutur99rrrrr99q       ",
"         yuuuttrrrrrr90q      .."
};
