/* XPM */
static char *result[] = {
/* columns rows colors chars-per-pixel */
"32 32 37 1 ",
"  c #A4C263",
". c #C0D470",
"X c #534721",
"o c #987B31",
"O c #FFD600",
"+ c #CCAD47",
"@ c #E6D86C",
"# c #C79D00",
"$ c #E3B700",
"% c #FFFC00",
"& c #F7F2A6",
"* c #C70000",
"= c #7A6843",
"- c #EEDAB3",
"; c #3B6D5D",
": c #FDF0C5",
"> c #F3EFEF",
", c #343F2F",
"< c #EFEFEF",
"1 c #A0A69E",
"2 c white",
"3 c #CA9E73",
"4 c #DDBD9C",
"5 c #136F39",
"6 c #12A855",
"7 c #FFACD4",
"8 c #FFD0DF",
"9 c #853E10",
"0 c #5C2E06",
"q c #663450",
"w c #FF5DB3",
"e c #FF7774",
"r c #D14F35",
"t c #747676",
"y c #D6DAD9",
"u c #B4B8B7",
"i c black",
/* pixels */
" ....    ......        ...      ",
"............................ ...",
"................................",
".. ....... .. ............... ..",
"..........X..oooooooo.. ........",
".........XOXoX+@@@@++oo.........",
"........X#$OX%@@@@@&@@+o........",
"........X#*$$O%@@@@@&@@+o.......",
"..... ..o+@&&$O@@@@@&&@@+o......",
"........o@@@&&&O&&&&&@@@@o......",
".......o+@@@@&&&&&&&@@@@@+o.....",
".......o+@@@@@@@@@@@@@@@@+o.....",
".......o+@@@@@@+@@@@@@@@@@o.....",
".......o+@+@+@@+@@+@@@@@@@o.....",
"........o=--;;;-@@==@@@@@@o.....",
".........=-:>,<;@@-:=@@@@@o.....",
" ........=-:1,2;&@3:=@@@@@o.....",
".........=4:552:&@3-=@@@@@o.....",
".........=3:66::@@4=+@@@@+o.....",
"..........=4::::@@43+@@+@+o.....",
"...........=34--@@33+@@+@+o.....",
"............====@@==++@+++o.....",
"... ........=478@@990+@+++o.....",
"............qw7e+@eer0+o++o.....",
"........ ...0reee+eer0+o++o.....",
"............qrreety2ytoo+o......",
"...........qw7888=::-=0.o.......",
"..........tuyy7ee=::4=90.. .. ..",
".........tu222eeer===rr90.......",
".........tuuyyeeeeerrrr90.......",
"..........ty22eeeeeerr90........",
"  .......  ttuu99990000....  .  "
};
