/* XPM */
static char *result[] = {
/* columns rows colors chars-per-pixel */
"32 32 37 1 ",
"  c #A4C263",
". c #C0D470",
"X c #534721",
"o c #987B31",
"O c #FFD600",
"+ c #CCAD47",
"@ c #E6D86C",
"# c #C79D00",
"$ c #E3B700",
"% c #FFFC00",
"& c #F7F2A6",
"* c #C70000",
"= c #7A6843",
"- c #EEDAB3",
"; c #3B6D5D",
": c #FDF0C5",
"> c #F3EFEF",
", c #343F2F",
"< c #EFEFEF",
"1 c #A0A69E",
"2 c white",
"3 c #CA9E73",
"4 c #DDBD9C",
"5 c #136F39",
"6 c #12A855",
"7 c #FFACD4",
"8 c #FFD0DF",
"9 c #D14F35",
"0 c #5C2E06",
"q c #663450",
"w c #FF5DB3",
"e c #FF7774",
"r c #853E10",
"t c #D6DAD9",
"y c #747676",
"u c #B4B8B7",
"i c black",
/* pixels */
" ....    ......        ...      ",
"............................ ...",
"................................",
".. ....... .. ............... ..",
"....................... ........",
"..........X..oooooooo...........",
".........XOXoX+@@@@++oo.........",
"........X#$OX%@@@@@&@@+o........",
"..... ..X#*$$O%@@@@@&@@+o ......",
"........o+@&&$O@@@@@&&@@+o......",
"........o@@@&&&O&&&&&@@@@o......",
".......o+@@@@&&&&&&&@@@@@+o.....",
".......o+@@@@@@@@@@@@@@@@+o.....",
".......o+@@@@@@@@@@@@@@@@@o.....",
".......o+@+@+@+@@@+@@@@@@@o.....",
"........o=--;;;-@@==@@@@@@o.....",
" ........=-:>,<;@@-:=@@@@@o.....",
".........=-:1,2;&@3:=@@@@@o.....",
".........=4:552:&@3-=@@+@@+o....",
".........=3:66::@@4=+@@++@+o....",
"..........=4::::@@@3++@++@+o....",
"...........=34--4@@3++@++++o....",
"... ........=====@@@++++o++o....",
"............=47879@@0+++o++o....",
"........ ...qw7eer@+90+oo+o.....",
"............09eee0e+ety..o......",
"............q99ee90t2:4=........",
"...........qw78887wy::4=.. .. ..",
"..........yttt7ee79=44=0........",
".........yt222eeeee9==rr0.......",
"........yuutttteee999rrrr0......",
"  .......yt222tee999rrrr0..  .  "
};
