/* XPM */
static char *result[] = {
/* columns rows colors chars-per-pixel */
"32 32 37 1 ",
"  c #C0D470",
". c #A4C263",
"X c #987B31",
"o c #534721",
"O c #CCAD47",
"+ c #E6D86C",
"@ c #FFFC00",
"# c #FFD600",
"$ c #F7F2A6",
"% c #E3B700",
"& c #FF2627",
"* c #C79D00",
"= c #EEDAB3",
"- c #3B6D5D",
"; c #FDF0C5",
": c #DDBD9C",
"> c #EFEFEF",
", c #343F2F",
"< c #F3EFEF",
"1 c white",
"2 c #A0A69E",
"3 c #7A6843",
"4 c #136F39",
"5 c #CA9E73",
"6 c #12A855",
"7 c #C1D470",
"8 c #5C2E06",
"9 c #853E10",
"0 c #B4B8B7",
"q c #D14F35",
"w c #FF5DB3",
"e c #FFACD4",
"r c #FFD0DF",
"t c #FF7774",
"y c #747676",
"u c #D6DAD9",
"i c black",
/* pixels */
"                             ...",
"                                ",
"                                ",
"                             .  ",
"                                ",
"            XXXXoXXXX           ",
"          XXOo+o@o+oOXX         ",
"         XO++@o###o@++OX        ",
"        XO++$#%%&%%#$++OX       ",
"       XO++$*%+++++%*$++OX      ",
"       XO++*$$$$$$$$$*++OX      ",
"      XO+++++$$$$$$$+++++OX     ",
"      XO+++O+++++++++O+++OX     ",
"      XO+++O+++++++++O+++OX     ",
"      XO+++O+O+O+O+O+O+++OX     ",
"      XO+++=---;;;---=+++OX     ",
"      XO:++->,<;;;<,>-++:OX     ",
"      XO:+$-1,2;;;2,1-$+:OX     ",
"      XO3$+=144;;;441=$+3OX     ",
"      XO++5=;66;;;66;=++OOOX7   ",
"      XO++3:=;;;;;;;=:++OOOX7   ",
"       X++835:=====:5++OOOOX7   ",
"       X+O99333333333++8OOOX7   ",
"       3O09qqwer;rew+Ot0yOOX7   ",
"       35:08qtterettOu1;:3X 7   ",
"        33y89ttttttt93;;=3  7   ",
"          8wwqqtttqqw3=::3  7   ",
"         89w9eerrree99333   7.  ",
"        899qttruuurqqq98    7   ",
"        89qttu111u0tqq98    7   ",
"        89qt00uuu000tq8         ",
"         89tu111uuyy88        .."
};
