/* XPM */
static char *result[] = {
/* columns rows colors chars-per-pixel */
"32 32 36 1 ",
"  c #A4C263",
". c #C0D470",
"X c #987B31",
"o c #534721",
"O c #CCAD47",
"+ c #E6D86C",
"@ c #FFFC00",
"# c #FFD600",
"$ c #F7F2A6",
"% c #E3B700",
"& c #FF2627",
"* c #C79D00",
"= c #EEDAB3",
"- c #3B6D5D",
"; c #FDF0C5",
": c #DDBD9C",
"> c #EFEFEF",
", c #343F2F",
"< c #F3EFEF",
"1 c white",
"2 c #A0A69E",
"3 c #7A6843",
"4 c #136F39",
"5 c #12A855",
"6 c #CA9E73",
"7 c #5C2E06",
"8 c #853E10",
"9 c #747676",
"0 c #B4B8B7",
"q c #FF7774",
"w c #FF5DB3",
"e c #FFACD4",
"r c #FFD0DF",
"t c #D14F35",
"y c #D6DAD9",
"u c black",
/* pixels */
" ....    ......        ...      ",
"............................ ...",
"................................",
".. ....... .. ............... ..",
"....................... ........",
"............XXXXoXXXX...........",
"..........XXOo+o@o+oOXX.........",
".........XO++@o###o@++OX........",
"..... ..XO++$#%%&%%#$++OX ......",
".......XO++$*%+++++%*$++OX......",
".......XO++*$$$$$$$$$*++OX......",
"......XO+++++$$$$$$$+++++OX.....",
"......XO+++O+++++++++O+++OX.....",
"......XO+++O+++++++++O+++OX.....",
"......XO+++O+O+O+O+O+O+++OX.....",
"......XO+++=---;;;---=+++OX.....",
" .....XO:++->,<;;;<,>-++:OX.....",
"......XO:+$-1,2;;;2,1-$+:OX.....",
"......XO3+$=144;;;441=+$3OX.....",
".....XOOO++=;55;;;55;=6++OX.....",
".....XOOO++:=;;;;;;;=:3++OX.....",
".....XOOOO++6:=====:637++X......",
"... .XOOO7++33333333388O+X......",
".....XOO90qO+wer;rewtt80O3......",
"......X3:;1yOqqereqqt70:63......",
".......3=;;38qqqqqqq87933.......",
".......3::=3wttqqqttww7.........",
"........33388eerrree8w87.. .. ..",
".........78tttryyyrqqt887.......",
".........78ttq0y111yqqt87.......",
"..........7tq000yyy00qt87.......",
"  .......  7799yy111yq87...  .  "
};
